<?xml version="1.0" encoding="UTF-8"?>
<svg version="1.1" viewBox="0 0 16 16" xmlns="http://www.w3.org/2000/svg">
<g transform="translate(1 1)" fill="#839e2e">
<path d="m10.443 2.3202 1.0746-1.9864c0.0705-0.13151 0.0454-0.23235-0.0755-0.30326-0.1313-0.061145-0.2322-0.030162-0.3027 0.09076l-1.0896 2.0023c-0.95886-0.42478-1.973-0.63756-3.0424-0.63756-1.0696 0-2.0838 0.21282-3.0423 0.63756l-1.0897-2.0023c-0.07081-0.12092-0.17168-0.15163-0.30266-0.09076-0.12122 0.07123-0.14631 0.17175-0.0755 0.30326l1.0747 1.9864c-1.0897 0.55682-1.9576 1.3323-2.6034 2.3282-0.64575 0.99639-0.96876 2.0852-0.96876 3.2684h14c0-1.1829-0.323-2.2718-0.9687-3.2684-0.6458-0.99584-1.5087-1.7713-2.5881-2.3282zm-6.2131 2.8892c-0.11622 0.11672-0.25502 0.17482-0.41637 0.17482-0.16166 0-0.29764-0.058096-0.40858-0.17482-0.11093-0.11617-0.1664-0.25471-0.1664-0.41692 0-0.16167 0.05547-0.30048 0.1664-0.41692 0.11094-0.11618 0.24724-0.17427 0.40858-0.17427 0.16135 0 0.30015 0.058086 0.41637 0.17427 0.11594 0.11672 0.17419 0.25525 0.17419 0.41692-3.2e-4 0.16194-0.05852 0.30075-0.17419 0.41692zm6.3794 0c-0.1111 0.11672-0.2474 0.17482-0.4085 0.17482-0.1617 0-0.30049-0.058096-0.41648-0.17482-0.11617-0.11617-0.17414-0.25471-0.17414-0.41692 0-0.16167 0.05797-0.30048 0.17414-0.41692 0.11599-0.11618 0.25478-0.17427 0.41648-0.17427 0.1613 0 0.2973 0.058086 0.4085 0.17427 0.111 0.11672 0.1664 0.25525 0.1664 0.41692 0 0.16194-0.0554 0.30075-0.1664 0.41692z" stroke-width="1.001"/>
<path d="m0 14 14 3.01e-4v-5.5378h-14z" stroke-width="1.0048"/>
</g>
</svg>
