<?xml version="1.0" encoding="UTF-8"?>
<svg version="1.1" viewBox="0 0 16 7.004" xmlns="http://www.w3.org/2000/svg">
<g transform="matrix(1.1429 0 0 1.1566 0 -4.5945)" clip-path="url(#a)" fill="#00b2ff">
<path d="m1.4737 4.4825c-0.00916 0-0.0167 0.00485-0.02262 0.01185-0.61974 0.87281-0.99342 1.4635-1.3811 2.1807l-0.038768 0.07915-0.011307 0.02531c-0.033383 0.06946-0.024768 0.14646 0.021538 0.21968 0.22938 0.35861 1.5146 0.77751 4.3851 0.77751 2.1403 0 4.4136-0.34568 4.4136-0.98588 0-0.61813-2.2453-0.9875-4.4136-0.9875-0.72044 0-1.4333 0.10122-1.639 0.13353 0.19599-0.30207 1.0106-1.3989 1.0193-1.4102 0.00377-0.00484 0.00646-0.01023 0.00646-0.01615 0-0.00431-0.00161-0.00862-0.00323-0.01292-0.00646-0.00862-0.01561-0.01508-0.02531-0.01508zm0.83619 2.3088c0-0.13354 0.80497-0.32038 2.1166-0.32038 1.3111 0 2.115 0.18684 2.115 0.32038 0 0.13353-0.80389 0.31983-2.115 0.31983-1.3116 0-2.1166-0.1863-2.1166-0.31983z"/>
<path d="m3.0976 10.012s10.671 0.434 10.899-3.2953c0.1841-3.025-7.3944-2.7374-7.4014-2.7374s-0.05869 0.00485-0.05869 0.04792c0 0.03608 0.02692 0.04846 0.05438 0.04846 2.1015 0 5.5211 0.83459 5.4097 2.6432-0.0899 1.4732-2.7579 3.1973-8.8988 3.1973-0.03661 0-0.06084 0.02531-0.06084 0.04792 0 0.02262 0.01346 0.04362 0.05707 0.04792z"/>
</g>
<defs>
<clipPath id="a">
<rect width="14" height="14" fill="#fff"/>
</clipPath>
</defs>
</svg>
