<?xml version="1.0" encoding="UTF-8"?>
<svg version="1.1" viewBox="0 0 14 8.967" xmlns="http://www.w3.org/2000/svg">
<path d="m0 0.32605 2.8781-0.073781c0.55878-0.012245 1.0755 0.049069 1.5983 0.23343v0.10444c-0.45065 0.39302-0.77502 0.85969-1.0696 1.3819l-1.7485 0.012364 0.012004 5.0667 1.0335 0.073494 1.0575-0.012179c0.63094-0.0063205 1.2137-1.038 1.2679-1.5969l0.15608-1.7624c0.066218-0.77393 0.50476-1.3695 1.1838-1.689 0.42665 0.73089 0.61288 1.5415 0.61288 2.3951 0 2.684-1.6281 4.3789-4.1941 4.2807l-2.7879-0.11049z" clip-rule="evenodd" fill="#c00" fill-rule="evenodd" stroke-width="1.0278"/>
<path d="m8.4962 0.23346c-0.50476 0.38073-0.90129 0.80447-1.1837 1.3817-0.096228-0.00605-0.19235-0.012199-0.28839-0.012199-1.0156 0-1.9408 0.90885-2.061 1.9284l-0.26442 2.2172c-0.036064 0.31327-0.30047 0.63255-0.4988 0.85977-0.16812 0.18421-0.3664 0.22108-0.61279 0.22108h-0.030041c-0.31248-0.73681-0.47474-1.4985-0.47474-2.303 0-2.5241 1.382-4.5263 3.9537-4.5263 0.50476 0 0.98543 0.098316 1.4601 0.23346z" clip-rule="evenodd" fill="#f0f" fill-rule="evenodd" stroke-width="1.0278"/>
<path d="m5.3537 8.5742 0.83519-0.80472 0.37851-0.55262 0.63084 0.012333c0.30046 0.66937 0.79314 1.1238 1.394 1.517-0.43866 0.14748-0.87125 0.22107-1.328 0.22107-0.66689 0-1.2919-0.15354-1.9106-0.39291z" clip-rule="evenodd" fill="#f0f" fill-rule="evenodd" stroke-width="1.0278"/>
<path d="m7.2704 6.0129 1.6043 0.012374c0.16828 1.0501 0.84727 1.3388 1.8566 1.3388 0.63104 0 1.5743-0.15352 1.5743-0.97648 0-0.42993-0.33052-0.65116-0.6669-0.8415l0.08407-1.6397c1.2799 0.35606 2.2773 0.84738 2.2773 2.3827 0 1.8181-1.6944 2.5857-3.2566 2.5857-1.1176 0-2.5657-0.3317-3.1606-1.4125-0.18621-0.33166-0.36036-0.76153-0.36036-1.1484 0-0.030791 0.00586-0.061428 0.011891-0.092086z" clip-rule="evenodd" fill="#cca300" fill-rule="evenodd" stroke-width="1.0278"/>
<path d="m13.718 2.8133h-1.6403c-0.13823-0.81692-0.80534-1.2222-1.6045-1.2222-0.54656 0-1.442 0.24542-1.4719 0.94569-0.00623 0.036937 0 0.067389 0.011901 0.098355l0.32448 0.95187c0.066105 0.19654 0.07817 0.41139 0.07817 0.62027 0 0.23939-0.030103 0.47895-0.060051 0.71853-1.1537-0.33165-1.9649-0.90268-1.9649-2.2294 0-1.7872 1.412-2.6225 3.0223-2.6225 1.7904 0 3.1905 0.85379 3.3047 2.7393z" clip-rule="evenodd" fill="#cca300" fill-rule="evenodd" stroke-width="1.0278"/>
<path d="m10.743 1.9166c0.40545 0.78013 0.61387 1.6277 0.61387 2.5302 0 0.93979-0.23083 1.818-0.62497 2.6409-0.10144 0.0061-0.20267 0.018284-0.30411 0.018284-0.32651 0-1.1204-0.23938-1.1204-0.6753 0-0.073689 0.011141-0.1475 0.033803-0.21507l0.29822-1.0868c0.062127-0.21505 0.039548-0.4731 0.039548-0.68797 0-0.84145-0.34909-1.3697-0.37733-1.947-0.016814-0.40516 0.68698-0.59564 0.93479-0.59564 0.16886 0 0.33772 0 0.50658 0.018304z" clip-rule="evenodd" fill="#f0f" fill-rule="evenodd" stroke-width="1.0278"/>
</svg>
