<?xml version="1.0" encoding="UTF-8"?>
<svg version="1.1" viewBox="0 0 14 12.417" xmlns="http://www.w3.org/2000/svg">
<g transform="scale(1 1)" clip-path="url(#a)" fill="#cf3311">
<path d="m8.523 0.16915c0.52027 0.078119 1.0516 0.2598 1.3287 0.34456 0.55827 0.17062 1.4645 0.70097 1.7845 0.95535 0.1513 0.12027 0.4697 0.43529 0.5929 0.59385 0.1201 0.15447 0.3495 0.48907 0.4959 0.69521 0.2329 0.34024 0.5072 0.84702 0.7399 1.3134 0.2599 0.52105 0.2777 0.67197 0.3563 1.1076l0.1718 0.7679c0.0161 0.13278 0.0295 0.61986-0.2564 0.68813-0.2858 0.06827-0.55-0.06362-0.6746-0.25637-0.1724-0.26678-0.1486-0.64542-0.3436-1.0788-0.152-0.35032-0.2185-0.85941-0.4613-1.2256l-0.1904-0.32199c-0.3369-0.51872-0.6881-0.93045-0.8976-1.199-0.1844-0.22562-0.5289-0.53233-0.8554-0.75053-0.302-0.18313-0.79015-0.39192-1.1422-0.49947-0.11219-0.03652-0.59241-0.17771-0.89083-0.21743-0.40498-0.04548-0.67142-0.10954-1.0563-0.13665-0.47512-0.033527-0.70306-0.075795-1.3194-0.003763-0.23347 0.063293-0.60336 0.088413-0.93631 0.21576-0.26887 0.10966-0.64287 0.28681-1.0092 0.50202-0.39424 0.21621-0.99274 0.65836-1.3896 1.0359-0.39999 0.42744-0.60005 0.65682-0.8759 1.1987-0.12215 0.26811-0.35839 0.68282-0.45366 0.9756-0.06506 0.2972-0.18921 0.85155-0.16829 1.1208 0.0094 0.48232-0.03276 0.58168 0.00343 0.97592 0.00132 0.35497 0.11784 0.60105 0.1663 0.89139 0.0415 0.20061 0.23391 0.89471 0.35297 1.0558 0.54119 1.166 1.2676 1.671 2.0771 2.0353 0.22815 0.1162 0.94217 0.3072 1.1488 0.362 0.3522 0.0635 0.81571 0.1059 1.2618 0.1145 0.46938 0.0092 1.1163-0.0544 1.5089-0.1989 0.42489-0.1562 0.91617-0.3783 0.91052-0.3721 0.19718-0.1087 0.49804-0.286 0.59176-0.3641 0.18113-0.116 0.29023-0.161 0.39756-0.2727 0.1548-0.1354 0.24852-0.2134 0.3658-0.3813 0.06529-0.09461 0.16897-0.23945 0.26997-0.36747 0.1087-0.17803 0.1711-0.36569 0.2772-0.59783 0.1269-0.34335 0.1072-0.32686 0.1313-0.69156 0.0228-0.10567-0.0024-0.46085-0.0215-0.52116-0.0572-0.32774-0.037-0.61687-0.112-0.93509-0.1014-0.43054-0.1856-0.75275-0.3149-1.1658-0.12163-0.46506-0.4788-0.89592-0.74691-1.2036-0.16608-0.19076-0.68137-0.64132-1.3963-0.9227-0.20127-0.06772-0.53078-0.14451-0.74002-0.18268-0.44669-0.0467-0.51938-0.01671-0.94704 0.0146-0.14717 0.02567-0.48885 0.09549-0.61444 0.13964-0.36735 0.12902-0.50245 0.21101-0.878 0.44105-0.17482 0.10146-0.3066 0.17914-0.4853 0.34666-0.14263 0.13201-0.24454 0.3564-0.36005 0.48796-0.15823 0.21533-0.33439 0.50257-0.45256 0.81239-0.12813 0.30816-0.1694 0.74201-0.14993 1.0212 0 0.21278 0.05787 0.60226 0.08089 0.68746 0.0229 0.08531 0.08044 0.34976 0.09294 0.40287 0.0125 0.053 0.15004 0.33284 0.16896 0.37333 0.07757 0.16509 0.22606 0.40232 0.47624 0.64453 0.18456 0.20161 0.5414 0.39945 0.80851 0.47613 0.23955 0.13145 0.64353 0.1538 0.86704 0.15424 0.10999-0.00664 0.39093-0.0239 0.53754-0.05909 0.29731-0.07136 0.35219-0.07325 0.65858-0.20636 0.27496-0.12746 0.46152-0.17338 0.65305-0.3149 0 0 0.2629-0.20603 0.3824-0.35674 0.06307-0.07955 0.17118-0.45864 0.15192-0.69343-0.00896-0.32144 0.03784-0.50379-0.02777-0.76824s-0.17759-0.57095-0.29897-0.75983c-0.12293-0.19131-0.38727-0.37775-0.68813-0.52613-0.16841-0.08321-0.56752-0.16033-0.73681-0.18036-0.32166-0.03817-0.59065 0.10777-0.75396 0.27474-0.14163 0.16188-0.42158 0.49814-0.31004 0.8458 0.10091 0.31458 0.22273 0.64973 0.69454 0.62484 0.32376 0.06738 0.69831-0.03043 0.82301 0.027 0.18511 0.10511 0.25626 0.33725 0.18899 0.49913-0.04692 0.31214-0.34589 0.34954-0.665 0.37333-0.28548 0.0478-1.0106-0.09195-1.1699-0.21134-0.10689-0.06351-0.27054-0.21609-0.38584-0.31911-0.08287-0.07413-0.1767-0.23944-0.24077-0.35817-0.07867-0.14583-0.11839-0.25316-0.13864-0.34821-0.02401-0.11286-0.07347-0.3283-0.05477-0.54373 0.01261-0.14528 0.05156-0.20713 0.09029-0.41958 0.07712-0.24088 0.17294-0.42423 0.32707-0.63313 0.20083-0.20382 0.45588-0.44647 0.70484-0.55922 0.21953-0.11596 0.60414-0.15868 0.95213-0.13832 0.28227 0.027 0.61621 0.06141 0.83695 0.13544 0.37787 0.13499 0.48586 0.16188 0.79601 0.35751 0.26213 0.16221 0.5258 0.46063 0.67297 0.70782 0.31302 0.64054 0.49261 1.3531 0.36204 2.3123-0.01073 0.1621-0.06119 0.32044-0.16221 0.53499-0.09328 0.19806-0.25693 0.43894-0.50246 0.6203-0.09892 0.0915-0.25482 0.20414-0.38174 0.27009-0.18013 0.10932-0.30129 0.16619-0.4894 0.26069-0.16509 0.07756-0.3575 0.1663-0.60846 0.23601-0.27197 0.10755-0.48066 0.11195-0.82267 0.16295-0.33671 0.0845-1.2579 0.0242-1.8066-0.21783-0.37454-0.15745-0.79479-0.43507-1.1142-0.77344-0.17748-0.186-0.35109-0.52348-0.4021-0.59252-0.25405-0.4884-0.30384-0.94782-0.34456-1.0443-0.05533-0.13111-0.08288-0.42511-0.11995-0.62627-0.04182-0.2255-0.01593-1.1712 0.21179-1.7782 0.12835-0.24166 0.20348-0.45709 0.29034-0.57028 0.15613-0.22208 0.23159-0.36083 0.36437-0.51828 0.20016-0.24277 0.34589-0.44083 0.54085-0.58047 0.49681-0.40398 0.91186-0.61709 1.4732-0.88375 0.69753-0.28404 0.90699-0.22528 1.5671-0.21477 0.29698 0.00254 0.72918 0.09593 0.94162 0.13466 0.39458 0.05256 0.62063 0.1476 0.88752 0.22207 0.28536 0.07967 0.45034 0.2068 0.68447 0.34832 0.19275 0.12448 0.41959 0.29499 0.5694 0.43342 0.3833 0.28104 0.5682 0.57648 0.8031 0.93929 0.0426 0.06086 0.3215 0.65538 0.366 0.82091 0.0206 0.08288 0.0838 0.32088 0.1243 0.45997 0.0521 0.22063 0.0773 0.41604 0.1354 0.665 0.052 0.25648 0.1405 0.74079 0.1789 1.1935 0.0645 0.38827-0.0388 1.1808-0.0998 1.4242-0.1357 0.45366-0.3732 1.0074-0.8421 1.5406-0.1992 0.2361-0.411 0.4191-0.65562 0.6177-0.1871 0.1561-0.34766 0.247-0.63667 0.4196-0.39258 0.2342-0.69134 0.3838-1.2416 0.5989-0.22407 0.072-0.50633 0.1666-0.81062 0.2295-0.58942 0.0545-1.1951 0.1067-1.8562 0.0281-0.66123-0.0786-1.3236-0.265-1.7148-0.3851-0.21588-0.081-0.63413-0.2564-0.80951-0.3508-0.11408-0.058-0.49659-0.3195-0.56154-0.3825-0.26213-0.1622-0.84879-0.7139-1.2275-1.2282-0.08299-0.1589-0.38141-0.63569-0.44614-0.84459-0.17206-0.3533-0.292-0.78063-0.36249-0.9632-0.074356-0.42611-0.19994-0.70052-0.24896-1.1283 0.0056431-0.10069-0.020249-0.33759-0.043042-0.46871 0.033305-0.29278-0.011176-0.56873 0.046915-0.8874 0.051009-0.26899 0.11862-0.3813 0.13466-0.6244 0.015712-0.10401 0.1496-0.41681 0.18523-0.55601 0.10799-0.22926 0.13488-0.41814 0.27585-0.67429 0.20315-0.39922 0.41549-0.85853 0.74179-1.2597 0.09317-0.12437 0.3574-0.42279 0.44746-0.52625 0.21289-0.21278 0.33782-0.24641 0.57925-0.45997 0.02512-0.01582 0.18456-0.19761 0.35153-0.26013 0.27674-0.21377 0.51585-0.29222 0.77919-0.48664 0.5278-0.2629 0.72022-0.35164 1.2441-0.56962 0.30274-0.10799 0.72497-0.16774 0.87701-0.22672 0.28923-0.017925 0.58278-0.11021 0.88707-0.091839 0.34157-0.0032088 0.6858 0.021134 1.029 0.052337 0.23226 0.014274 0.53422 0.02556 0.94384 0.11441z" fill="#cf3311"/>
</g>
<defs>
<clipPath id="a">
<rect width="14" height="12.417" fill="#fff"/>
</clipPath>
</defs>
</svg>
