<?xml version="1.0" encoding="UTF-8"?>
<svg version="1.1" viewBox="0 0 14 6.294" xmlns="http://www.w3.org/2000/svg">
<path d="m7.9729 1.09s-0.96199 1.1845-0.91278 1.26c0.068249-0.075535-0.34538-1.273-0.34538-1.273s-0.086308-0.25178-0.35713-1.0771h-5.155l-0.1792 0.77474h1.6714c0.86904 0 1.3996 0.35924 1.2514 0.99574-0.16009 0.69305-0.91859 0.98893-1.7265 0.98893h-0.30211l0.38863-1.6945h-1.3506l-0.57343 2.4757h1.9178c1.4428 0 2.8116-0.77467 3.0584-1.7701 0.043186-0.18298 0.037096-0.64294-0.073782-0.91369 0-0.00651-0.00636-0.018973-0.012453-0.037589-0.00609-0.00651-0.012463-0.050546 0.012453-0.056982 0.012043-0.00644 0.036749 0.018973 0.036749 0.025063 0 0 0.012537 0.031919 0.024569 0.056909l1.2208 3.522 3.1082-3.585 1.3132-0.00644h0.32056c0.86959 0 1.4062 0.35923 1.2578 0.99573-0.16033 0.69306-0.9243 0.98894-1.7325 0.98894h-0.30838l0.39448-1.6945h-1.3501l-0.57384 2.4757h1.9178c1.4428 0 2.8239-0.77467 3.0522-1.7701 0.23436-0.99574-0.77698-1.7705-2.2323-1.7705h-2.8608c-0.75837 0.91341-0.90032 1.09-0.90032 1.09z" fill="#ccc" stroke-width="1.05"/>
<path d="m6.6095 4.3788c-3.6499 0-6.6095 0.42839-6.6095 0.95779 0 0.52904 2.9596 0.95743 6.6095 0.95743 3.6567 0 6.6166-0.42839 6.6166-0.95743 1.05e-4 -0.5294-2.9598-0.95779-6.6166-0.95779zm-0.23422 1.298c-0.83859 0-1.5106-0.14503-1.5106-0.32164 0-0.17661 0.67192-0.32129 1.5106-0.32129 0.83214 0 1.5048 0.14461 1.5048 0.32129 0 0.17661-0.67269 0.32164-1.5048 0.32164z" fill="#ccc" stroke-width="1.05"/>
<path d="m7.9729 1.09s-0.96199 1.1845-0.91278 1.26c0.068249-0.075535-0.34538-1.273-0.34538-1.273s-0.086308-0.25178-0.35713-1.0771h-5.155l-0.1792 0.77474h1.6714c0.86904 0 1.3996 0.35924 1.2514 0.99574-0.16009 0.69305-0.91859 0.98893-1.7265 0.98893h-0.30211l0.38863-1.6945h-1.3506l-0.57343 2.4757h1.9178c1.4428 0 2.8116-0.77467 3.0584-1.7701 0.043186-0.18298 0.037096-0.64294-0.073782-0.91369 0-0.00651-0.00636-0.018973-0.012453-0.037589-0.00609-0.00651-0.012463-0.050546 0.012453-0.056982 0.012043-0.00644 0.036749 0.018973 0.036749 0.025063 0 0 0.012537 0.031919 0.024569 0.056909l1.2208 3.522 3.1082-3.585 1.3132-0.00644h0.32056c0.86959 0 1.4062 0.35923 1.2578 0.99573-0.16033 0.69306-0.9243 0.98894-1.7325 0.98894h-0.30838l0.39448-1.6945h-1.3501l-0.57384 2.4757h1.9178c1.4428 0 2.8239-0.77467 3.0522-1.7701 0.23436-0.99574-0.77698-1.7705-2.2323-1.7705h-2.8608c-0.75837 0.91341-0.90032 1.09-0.90032 1.09z" fill="#ccc" stroke-width="1.05"/>
<path d="m6.6095 4.3788c-3.6499 0-6.6095 0.42839-6.6095 0.95779 0 0.52904 2.9596 0.95743 6.6095 0.95743 3.6567 0 6.6166-0.42839 6.6166-0.95743 1.05e-4 -0.5294-2.9598-0.95779-6.6166-0.95779zm-0.23422 1.298c-0.83859 0-1.5106-0.14503-1.5106-0.32164 0-0.17661 0.67192-0.32129 1.5106-0.32129 0.83214 0 1.5048 0.14461 1.5048 0.32129 0 0.17661-0.67269 0.32164-1.5048 0.32164z" fill="#ccc" stroke-width="1.05"/>
</svg>
