<?xml version="1.0" encoding="UTF-8"?>
<svg version="1.1" viewBox="0 0 14 8.329" xmlns="http://www.w3.org/2000/svg">
<path d="m0 8.3291h1.8366v-0.86693h-0.4791v-1.4259l1.0609 2.2928h0.63878l0.8784-2.2187v1.3517h-0.33083v0.86693h2.1902v-0.86693h-0.49908l-0.0028258-2.4069h0.50191v-0.78999h-1.9774l-0.88015 2.0676-0.95253-2.0685h-1.9848v0.79093h0.46768v2.4069h-0.46768z" fill="#85c20a" stroke-width="1.2615"/>
<path d="m0 0v0.85561h0.45428v2.3737h-0.45428v0.82908h2.3737v-0.82769h-0.48695v-0.61329h1.3842v-0.84045h-1.3629v-0.91997h1.7036v0.79362h1.1358v-1.6506z" fill="#85c20a" stroke-width="1.2616"/>
<path d="m6.4453 0.0078125-0.015625 2.8594h1.3359c-0.0026-0.11458-0.00518-0.22814 0.00123-0.31684 0.00641-0.0887 0.022036-0.1512 0.040256-0.20215 0.018221-0.050953 0.039054-0.090015 0.073004-0.13317 0.033951-0.04315 0.080824-0.090025 0.13445-0.12659 0.053624-0.036562 0.11352-0.062603 0.17705-0.080933 0.063536-0.01833 0.1912-0.038755 0.71515-0.036149 0.52395 0.00261 1.5698 0.00781 2.6167 0.013018-0.10938 0.059896-0.2184 0.1196-0.34215 0.19384-0.12375 0.074234-0.26176 0.16277-0.38166 0.25398-0.1199 0.091209-0.22146 0.18496-0.32182 0.30488s-0.19931 0.26575-0.31652 0.45591c-0.11721 0.19015-0.25262 0.42452-0.33727 0.58217s-0.1185 0.23837-0.20314 0.41802-0.22005 0.45829-0.34245 0.75265c-0.1224 0.29435-0.23177 0.60424-0.33593 0.93241-0.10416 0.32817-0.20312 0.67452-0.25903 1.0887-0.055908 0.41422-0.068903 0.89501-0.081924 1.3768h2.5938c-0.0052-0.31771-0.0104-0.6344-0.0052-0.87665 0.0052-0.24225 0.02078-0.40891 0.03899-0.56909s0.03905-0.31383 0.08459-0.53525c0.04555-0.22142 0.11586-0.51048 0.19528-0.81389 0.07942-0.30341 0.16796-0.62111 0.23046-0.84767 0.0625-0.22656 0.09896-0.36197 0.13671-0.48832 0.03775-0.12634 0.07681-0.24353 0.11978-0.35687 0.04297-0.11334 0.08984-0.22272 0.15367-0.33872 0.06383-0.11601 0.14456-0.2384 0.22403-0.34525 0.07947-0.10685 0.15759-0.19799 0.26307-0.3191 0.10543-0.1211 0.23824-0.27214 0.36073-0.39202 0.12249-0.11988 0.23447-0.20842 0.33872-0.28137 0.10426-0.072956 0.2006-0.13024 0.30898-0.16405 0.10838-0.033805 0.22726-0.044142 0.34705-0.054559l0.01563-1.9688-7.5625 0.015625h-5e-6z" fill="#85c20a"/>
</svg>
