<?xml version="1.0" encoding="UTF-8"?>
<svg version="1.1" viewBox="0 0 14 8.329" xmlns="http://www.w3.org/2000/svg">
<path d="m0 8.3291h1.8366v-0.86693h-0.4791v-1.4259l1.0609 2.2928h0.63878l0.8784-2.2187v1.3517h-0.33083v0.86693h2.1902v-0.86693h-0.49908l-0.0028258-2.4069h0.50191v-0.78999h-1.9774l-0.88015 2.0676-0.95253-2.0685h-1.9848v0.79093h0.46768v2.4069h-0.46768z" fill="#abad1f" stroke-width="1.2615"/>
<path d="m0 0v0.85561h0.45428v2.3737h-0.45428v0.82908h2.3737v-0.82769h-0.48695v-0.61329h1.3842v-0.84045h-1.3629v-0.91997h1.7036v0.79362h1.1358v-1.6506z" fill="#abad1f" stroke-width="1.2616"/>
<path d="m10.078 0.013672c-0.2878 0.0051651-0.6627 0.022826-0.91016 0.041016-0.24746 0.018189-0.3685 0.0358-0.48828 0.052734-0.11978 0.016935-0.23889 0.033874-0.3457 0.050781-0.10681 0.016908-0.19982 0.034521-0.29492 0.056641s-0.19137 0.048835-0.27734 0.074219c-0.085975 0.025383-0.16137 0.048831-0.21875 0.070312-0.057377 0.021482-0.097036 0.041017-0.14648 0.0625-0.049448 0.021483-0.10993 0.044908-0.16211 0.070312s-0.095617 0.051395-0.13281 0.076172c-0.037195 0.024777-0.067721 0.048835-0.095703 0.070312-0.027982 0.021477-0.053936 0.040282-0.082031 0.066406-0.028095 0.026124-0.05855 0.05918-0.089844 0.097656-0.031294 0.038476-0.062488 0.082657-0.09375 0.12695-0.031262 0.044296-0.062472 0.089725-0.085938 0.13086s-0.039068 0.078688-0.054688 0.12109c-0.015619 0.042406-0.030608 0.088506-0.042969 0.13281-0.012361 0.044307-0.022161 0.085874-0.03125 0.13281-0.0090887 0.046938-0.017612 0.098905-0.025391 0.18945-0.0077784 0.090548-0.01629 0.21873-0.023438 0.39062-0.0071477 0.17189-0.013709 0.38863-0.015625 0.52539s0.001242 0.19397 0.0097656 0.27148c0.0085237 0.077515 0.022578 0.17444 0.050781 0.26562 0.028203 0.091186 0.070156 0.17779 0.11523 0.25 0.045078 0.072209 0.093648 0.13031 0.14062 0.17773 0.046977 0.047422 0.091742 0.083505 0.1543 0.11914 0.062555 0.035635 0.14258 0.071017 0.22461 0.10352 0.082031 0.032498 0.16603 0.06258 0.27148 0.091797 0.10545 0.029217 0.23307 0.057288 0.34961 0.083984 0.11654 0.026696 0.22217 0.051659 0.28125 0.072266 0.05908 0.020607 0.071444 0.036598 0.076172 0.048828 0.0047277 0.01223 0.0035591 0.021354-0.0078125 0.029297-0.011372 0.0079428-0.033308 0.016248-0.072266 0.025391s-0.095037 0.018235-0.16992 0.033203c-0.074885 0.014968-0.16857 0.035173-0.27539 0.0625s-0.22771 0.061847-0.32031 0.097656c-0.092606 0.03581-0.15742 0.073507-0.22852 0.125-0.071093 0.051493-0.14704 0.11644-0.20898 0.17969-0.061941 0.063252-0.10932 0.12354-0.14844 0.1875-0.039113 0.063957-0.069669 0.1327-0.099609 0.2168-0.02994 0.084094-0.059938 0.18414-0.080078 0.2832-0.02014 0.099062-0.030591 0.19598-0.044922 0.30469-0.01433 0.10871-0.031315 0.22908-0.039062 0.36328s-0.0065451 0.28187-0.0019531 0.41016c0.004592 0.12829 0.011012 0.23694 0.021484 0.33008 0.010473 0.093134 0.023309 0.17184 0.042969 0.24609 0.01966 0.074254 0.046741 0.14324 0.082031 0.21484 0.03529 0.0716 0.079945 0.14591 0.14453 0.22656s0.14967 0.16806 0.22656 0.23828c0.076894 0.070224 0.14579 0.12187 0.24414 0.17969 0.09835 0.057822 0.22461 0.12187 0.36328 0.17578s0.28973 0.097726 0.4668 0.13867c0.17706 0.040946 0.38087 0.079453 0.57422 0.11133 0.19335 0.031876 0.37632 0.057979 0.50781 0.074219 0.13149 0.016239 0.21096 0.023465 0.33789 0.029297 0.12693 0.0058316 0.30079 0.0097836 0.56445 0.011719 0.26366 0.0019353 0.61658 0.0013427 0.88477-0.0078124 0.26818-0.0091553 0.45122-0.026012 0.75391-0.072266 0.30269-0.046254 0.72538-0.12236 0.99414-0.18164 0.26876-0.059277 0.38361-0.10093 0.47852-0.14648 0.094907-0.045552 0.17134-0.093816 0.25195-0.1582s0.16611-0.14662 0.23633-0.22852c0.070218-0.081897 0.12567-0.16488 0.17578-0.27148 0.05011-0.1066 0.095695-0.23637 0.12695-0.33203 0.031258-0.095657 0.04816-0.1563 0.060546-0.20703 0.012389-0.050728 0.020104-0.092564 0.023438-0.19531s0.001284-0.26629-0.001953-0.40625-0.008565-0.25592-0.025391-0.37891c-0.016826-0.12299-0.045685-0.25458-0.080078-0.37109s-0.074878-0.2168-0.10547-0.29297c-0.030591-0.076171-0.050212-0.1276-0.074218-0.17773-0.024007-0.050138-0.052187-0.099566-0.080079-0.14258-0.027889-0.043012-0.056039-0.080039-0.091796-0.12109-0.035758-0.041055-0.078232-0.086413-0.12695-0.125-0.04872-0.038587-0.10352-0.069556-0.16797-0.099609s-0.13932-0.059225-0.2168-0.087891-0.1582-0.056608-0.22852-0.080078c-0.070319-0.02347-0.13019-0.042259-0.20312-0.060547s-0.15951-0.036695-0.21094-0.050781c-0.051428-0.014087-0.067347-0.024981-0.078125-0.035156s-0.015994-0.019647-0.013672-0.03125 0.011314-0.023932 0.029297-0.033203 0.045467-0.015673 0.11133-0.023438c0.06586-0.0077643 0.17001-0.01623 0.2832-0.035156s0.23576-0.04816 0.35547-0.083984c0.11971-0.035824 0.23837-0.078779 0.33398-0.11914 0.095613-0.040362 0.1669-0.076971 0.23242-0.13086 0.065524-0.053888 0.12571-0.1245 0.17383-0.19727 0.048118-0.072766 0.085927-0.14858 0.11524-0.22656 0.029306-0.077978 0.048744-0.159 0.060546-0.36719 0.011803-0.20819 0.014217-0.54369 0-0.79688-0.014216-0.25318-0.044399-0.42451-0.080078-0.5625-0.035678-0.13799-0.075662-0.24347-0.11719-0.33008s-0.085987-0.15362-0.125-0.21094c-0.039013-0.057315-0.073697-0.10405-0.11719-0.14844-0.04349-0.044392-0.09574-0.085854-0.16797-0.13477-0.072226-0.048912-0.16343-0.10536-0.2793-0.16211-0.11587-0.056749-0.2565-0.11319-0.41016-0.16406-0.15366-0.050874-0.32029-0.096942-0.51172-0.13672-0.19143-0.039777-0.40688-0.073526-0.64648-0.10352-0.23961-0.02999-0.50388-0.055959-0.73633-0.072266s-0.4329-0.022743-0.7207-0.017578zm0.18555 0.64648c0.12527 0.0037404 0.27017 0.014018 0.39453 0.039062s0.22839 0.063382 0.32227 0.11328c0.093877 0.049899 0.17809 0.11078 0.24414 0.18555 0.066049 0.074767 0.11367 0.16367 0.14844 0.26953 0.034767 0.10586 0.056682 0.22971 0.072265 0.36133 0.015585 0.13162 0.024518 0.27 0.025391 0.48633 8.73e-4 0.21632-0.005463 0.50979-0.015625 0.71875s-0.024295 0.33331-0.039062 0.43359c-0.014768 0.10029-0.031471 0.17635-0.066407 0.24414-0.034935 0.067795-0.08843 0.1294-0.1582 0.18359s-0.15551 0.10104-0.23828 0.14062-0.16109 0.071602-0.25391 0.09375-0.19946 0.034518-0.29883 0.041016c-0.099372 0.0064975-0.19189 0.0074034-0.2793 0.0019531-0.087411-0.0054501-0.17155-0.016609-0.24609-0.03125-0.074542-0.014641-0.1396-0.034486-0.20312-0.054687-0.063521-0.020202-0.12487-0.042155-0.1875-0.074219s-0.12611-0.073798-0.17773-0.11328c-0.051627-0.039484-0.09136-0.075826-0.11719-0.10156-0.025828-0.025737-0.038073-0.039996-0.056641-0.070312-0.018568-0.030317-0.043774-0.07802-0.060547-0.125-0.016773-0.04698-0.025885-0.094499-0.035156-0.17188-0.0092712-0.077376-0.017883-0.18285-0.023438-0.26758-0.005555-0.084731-0.0080338-0.14853-0.011719-0.29492-0.003685-0.1464-0.0084598-0.37562-0.0039062-0.58008s0.02009-0.38273 0.029297-0.49414c0.0092067-0.11141 0.011285-0.15746 0.019531-0.21094s0.022346-0.11508 0.052734-0.18164 0.078669-0.13736 0.13867-0.19922c0.060003-0.061857 0.13151-0.11408 0.20898-0.16016 0.077477-0.046077 0.15907-0.084756 0.24023-0.11328 0.081168-0.028525 0.16172-0.047613 0.25391-0.058594 0.09219-0.010981 0.197-0.013506 0.32227-0.0097656zm-0.025391 3.7266c0.041022 9.315e-4 0.12317 0.0034328 0.20703 0.013672 0.083858 0.010239 0.17041 0.02915 0.27539 0.060547s0.22716 0.074812 0.31641 0.12109c0.089242 0.046282 0.14469 0.094933 0.19336 0.14844 0.04867 0.053504 0.09179 0.11087 0.11914 0.16797 0.027351 0.057102 0.039097 0.11326 0.054688 0.20898 0.015591 0.095727 0.034966 0.23138 0.046875 0.39062s0.017289 0.34147 0.011719 0.56055c-0.005571 0.21908-0.022465 0.47661-0.039063 0.66992-0.016598 0.19332-0.033002 0.32283-0.0625 0.42383-0.029498 0.101-0.072514 0.17297-0.12305 0.23633-0.050532 0.063361-0.10819 0.11822-0.18164 0.16602-0.073452 0.047792-0.16138 0.088967-0.25977 0.12305-0.098391 0.03408-0.20791 0.062272-0.31641 0.076172-0.1085 0.0139-0.2169 0.012358-0.31445 0.0078126-0.09755-0.0045453-0.1844-0.012034-0.27734-0.03125-0.092944-0.019217-0.19181-0.050357-0.29492-0.089844s-0.21133-0.088258-0.30078-0.1543c-0.08945-0.066039-0.16089-0.14877-0.21094-0.25-0.050046-0.10123-0.077979-0.22192-0.09375-0.33984-0.015771-0.11792-0.018832-0.2341-0.023437-0.39062-0.0046057-0.15652-0.0096056-0.35249-0.0078126-0.51367 0.0017931-0.16118 0.01138-0.28747 0.021484-0.39062s0.021107-0.18312 0.03125-0.27148 0.017946-0.18394 0.039062-0.27344c0.021116-0.089499 0.054725-0.17218 0.089844-0.23047s0.071622-0.091569 0.11133-0.12109c0.039706-0.029525 0.082103-0.055682 0.13086-0.087891 0.048756-0.032209 0.10389-0.07104 0.16211-0.099609 0.058224-0.028569 0.1189-0.046964 0.17969-0.064453 0.060787-0.017489 0.12186-0.033939 0.20117-0.044922 0.079314-0.010983 0.17823-0.016796 0.22656-0.019531 0.048329-0.0027357 0.046868-0.0028847 0.08789-0.0019531z" fill="#abad1f"/>
</svg>
