<?xml version="1.0" encoding="UTF-8"?>
<svg version="1.1" viewBox="0 0 14 8.329" xmlns="http://www.w3.org/2000/svg">
<path d="m11.13 1.7221h2.8702v-1.7221h-7.7548v1.7221h2.8389v2.3366h2.0457z" fill="#2eb85c" stroke-width="1.2579"/>
<path d="m11.137 4.2644h-2.0518v4.0648h2.0518z" fill="#2eb85c" stroke-width="1.2684"/>
<path d="m0 8.3291h1.8366v-0.86693h-0.4791v-1.4259l1.0609 2.2928h0.63878l0.8784-2.2187v1.3517h-0.33083v0.86693h2.1902v-0.86693h-0.49908l-0.0028258-2.4069h0.50191v-0.78999h-1.9774l-0.88015 2.0676-0.95253-2.0685h-1.9848v0.79093h0.46768v2.4069h-0.46768z" fill="#2eb85c" stroke-width="1.2615"/>
<path d="m0 0v0.85561h0.45428v2.3737h-0.45428v0.82908h2.3737v-0.82769h-0.48695v-0.61329h1.3842v-0.84045h-1.3629v-0.91997h1.7036v0.79362h1.1358v-1.6506z" fill="#2eb85c" stroke-width="1.2616"/>
</svg>
