<?xml version="1.0" encoding="UTF-8"?>
<svg version="1.1" viewBox="0 0 16 8.004" xmlns="http://www.w3.org/2000/svg">
<rect width="16" height="8.004" fill="#1900cd" fill-rule="evenodd" stroke-width="1.2804"/>
<path d="m8.0932 5.7371h-1.0503v-3.5262h1.4908c0.79624 0 1.1859 0.53174 1.1859 1.6791 0 1.3993-0.42352 1.8471-1.6263 1.8471zm7.3354-5.0095h-1.2197l-0.03396 0.11194-1.3723 4.1699-1.4738-4.1699-0.033847-0.083958h-1.3044l0.10164 0.27986 0.25412 0.67167c-0.40659-0.64368-1.0165-0.97952-1.8127-0.97952h-2.6258v5.4293l-1.9482-5.3173-0.033874-0.083958h-0.99952l-0.033874 0.083958-2.2193 6.1569-0.10164 0.27987h2.7952v-1.4553h-1.135l1.135-3.3863 1.6094 4.7296 0.033875 0.083968h3.2696c1.711 0 2.592-1.1194 2.592-3.3023 0-0.39182-0.03388-0.72764-0.0847-1.0355l1.5586 4.2539 0.03385 0.083968h0.76238l0.03385-0.083968 2.1515-6.1569z" fill="#fff" stroke-width="1.179"/>
</svg>
