<?xml version="1.0" encoding="UTF-8"?>
<svg version="1.1" viewBox="0 0 16 7.004" xmlns="http://www.w3.org/2000/svg">
<path d="m15.499 5.4932c-0.33532-0.10361-0.72057-0.034927-0.72057-0.034927s-1.0887 0.10861-1.6554-0.015478c-0.8784-0.1591-0.84857-1.137-0.84857-1.137s-0.02983-0.64815 0.49943-1.5252c0.65314-1.0828 1.3738-1.2769 1.3738-1.2769s0.18023-0.069724 0.34914 0.023289c0.10503 0.62868 0.6944 0.62481 0.6944 0.62481s0.84846 0.058323 0.80709-1.005c-0.0976-0.87338-0.91223-0.9937-1.2538-1.0751-1.0247-0.19021-1.6891 0.37639-1.6891 0.37639s-0.68697 0.38432-1.5089 1.7231c-0.5595 0.8305-0.62694 1.4825-0.62694 1.4825s-0.06753 0.15535-0.04135 0.84619c-0.01486 0.53935 0.18025 0.93122 0.18025 0.93122s0.29662 0.92778 1.235 1.308c0.57052 0.24451 1.4039 0.24061 1.4039 0.24061s0.80709-0.011591 1.4264-0.046601c0.33783 0.027152 0.49932-0.15523 0.49932-0.15523s0.37897-0.25607 0.34149-0.70245c0 0-0.07349-0.46098-0.46549-0.58228z" fill="#c10b44" stroke-width="1.162"/>
<path d="m1.7547 0.78689c-1.2779 0.81744-1.8925 2.0638-1.7288 3.7586 0.19013 1.9657 2.6525 3.2044 4.7386 1.9566 0.1824-0.10911 0.1112-0.091749 0.17894-0.15414l0.41733-2.7422h-2.4888l-0.19066 1.2632h1.04l-0.11947 0.67811c-0.59573 0.24632-1.609 0.15386-2.041-0.6472-0.2736-0.50731-0.52719-1.6397 0.62612-2.6807 0.93813-0.84722 2.5626-1.0011 3.5016-0.55432 0 0 0.1192-0.70861 0.20826-1.3713-1.8029-0.64678-3.2037-0.10756-4.1421 0.49348z" fill="#6aab21" stroke-width="1.162"/>
<path d="m6.5548 0.22341-1.0349 6.6966h3.0164c1.2422 0 3.0587-1.8929 1.4051-3.4398 1.7004-1.8194 0.014469-3.2411-0.88746-3.2567-0.72444-0.012421-2.5135 0-2.5135 0zm0.73945 4.0516h1.1237c1.0651 0 1.0355 1.3454-0.14773 1.3454h-1.1829zm0.41383-2.6296h0.87285c0.9463 0 0.75433 1.2536-0.14745 1.2536h-0.9321z" fill="#c79d05" stroke-width="1.162"/>
</svg>
