<?xml version="1.0" encoding="UTF-8"?>
<svg version="1.1" viewBox="0 0 15 15" xmlns="http://www.w3.org/2000/svg">
<g transform="matrix(1 0 0 1.0056 1 1)" clip-path="url(#a)">
<path d="m20.056 27.633-8e-4 -0.0012c-0.2478-0.2797-0.3659-0.7983-0.4928-1.3507-0.1266-0.5521-0.2683-1.1474-0.7215-1.5333l-0.0029-0.0025c-0.0898-0.0784-0.1821-0.1445-0.2748-0.1996-0.093-0.0552-0.1874-0.1001-0.2817-0.1356 0.6301-1.8685 0.383-3.7292-0.2531-5.4103-0.7803-2.0636-2.1429-3.8614-3.1837-5.0913-1.165-1.4695-2.3042-2.8643-2.2817-4.9247 0.0347-3.1445 0.3458-8.9757-5.1878-8.9835-0.22499-4.0832e-4 -0.45977 0.0089831-0.70435 0.028582-6.1836 0.49774-4.5434 7.0309-4.6353 9.2182-0.1131 1.5998-0.43731 2.8607-1.5377 4.4246-1.2923 1.5369-3.1126 4.0248-3.9746 6.6148-0.40669 1.2221-0.60023 2.4679-0.42179 3.6471-0.05594 0.0502-0.10903 0.1029-0.16007 0.1568-0.37933 0.4055-0.65984 0.8962-0.97221 1.2266-0.29195 0.2916-0.70762 0.4022-1.1649 0.5659-0.45732 0.1642-0.95914 0.4059-1.2638 0.9906l-0.00204 0.0033c-0.14332 0.2674-0.18987 0.5561-0.18987 0.8489 0 0.2707 0.04002 0.5451 0.08044 0.8092 0.08411 0.5496 0.16945 1.0694 0.05635 1.4214-0.36177 0.9894-0.40832 1.6733-0.15353 2.1699 0.25561 0.4973 0.7803 0.7166 1.3736 0.8407 1.1866 0.2474 2.7933 0.1862 4.0595 0.8575l0.10903-0.2054-0.1078 0.2058c1.3556 0.7088 2.73 0.9604 3.8264 0.7101 0.79541-0.1813 1.4406-0.6549 1.7721-1.3834 0.85748-0.0041 1.7987-0.3675 3.3062-0.4504 1.0228-0.0825 2.3005 0.3634 3.77 0.2817 0.0384 0.1593 0.094 0.3128 0.1699 0.4586l0.0025 0.0041c0.5695 1.1392 1.6279 1.6602 2.7561 1.5712 1.1294-0.0891 2.3315-0.7566 3.3026-1.9118 0.9252-1.1221 2.4609-1.5871 3.4797-2.2012 0.5091-0.3071 0.922-0.6917 0.9542-1.2503 0.0318-0.5582-0.2961-1.1837-1.0499-2.0204z" fill="#4d4d4d"/>
<path d="m9.8009 9.4604c-0.10739-0.21028-0.32665-0.41036-0.69986-0.56348l-8.2e-4 -4.1e-4 -0.00122-4.1e-4c-0.77622-0.33237-1.1131-0.35605-1.5463-0.63779-0.70517-0.45324-1.2878-0.61208-1.7721-0.61004-0.25357 8.2e-4 -0.48019 0.04574-0.68313 0.11597-0.59002 0.20293-0.9816 0.62636-1.227 0.8587l-4.1e-4 4e-4c0 4.1e-4 -4.1e-4 4.1e-4 -4.1e-4 8.2e-4 -0.04818 0.04573-0.11024 0.08738-0.2605 0.19763-0.15149 0.11065-0.37852 0.27725-0.70517 0.52224-0.29032 0.21763-0.38464 0.50101-0.2842 0.83297 0.10004 0.332 0.42017 0.715 1.0057 1.0461l8.1e-4 8e-4 0.00123 4e-4c0.3634 0.2136 0.61166 0.5015 0.89667 0.7305 0.14251 0.1144 0.29236 0.2164 0.47284 0.2936s0.39117 0.1295 0.65494 0.145c0.61902 0.0359 1.0747-0.1499 1.4769-0.3802 0.40301-0.2299 0.74433-0.5112 1.136-0.6382l8.2e-4 -4e-4 8.5e-4 -4e-4c0.80272-0.2507 1.3752-0.7558 1.5544-1.2356 0.08983-0.24007 0.08697-0.46791-0.02001-0.6782z" fill="#f3d427"/>
<path d="m7.7643 10.645c-0.63864 0.3329-1.3846 0.7367-2.1784 0.7367-0.79337 0-1.4201-0.3667-1.8709-0.724-0.22539-0.1784-0.40832-0.356-0.54633-0.4851-0.23945-0.18899-0.21077-0.4541-0.11239-0.44627 0.16491 0.02059 0.18984 0.23771 0.29368 0.33487 0.14047 0.1314 0.31645 0.3017 0.5296 0.4707 0.42628 0.3377 0.99467 0.6664 1.7064 0.6664 0.71048 0 1.5398-0.4171 2.0461-0.7011 0.28682-0.1609 0.65178-0.4492 0.94962-0.66787 0.22787-0.16727 0.21956-0.36868 0.40771-0.34675s0.04897 0.22294-0.21452 0.45289c-0.26349 0.22993-0.6757 0.53503-1.0105 0.70953z" fill="#202020"/>
<path d="m17.544 24.274c-0.0886-0.0033-0.176-0.0029-0.2609-9e-4 -0.0078 4e-4 -0.0155 4e-4 -0.0237 4e-4 0.2193-0.6925-0.2658-1.2033-1.5585-1.788-1.3406-0.5896-2.4087-0.5312-2.5892 0.6652-0.0114 0.0624-0.0208 0.1265-0.0278 0.1911-0.1004 0.0351-0.2009 0.0792-0.3021 0.1343-0.6292 0.3446-0.9731 0.9693-1.1641 1.7362-0.1907 0.766-0.2459 1.6917-0.2981 2.7325v8e-4c-0.0323 0.5231-0.2479 1.2311-0.4659 1.9808-2.196 1.5667-5.2437 2.2453-7.8316 0.4789-0.17517-0.2772-0.37647-0.552-0.58349-0.8231-0.13229-0.1731-0.26826-0.3451-0.40301-0.5149 0.26541 4e-4 0.49121-0.0433 0.67373-0.1258 0.22703-0.1033 0.38627-0.2682 0.46549-0.4806 0.15761-0.4242-8.2e-4 -1.0228-0.50591-1.7068-0.5051-0.6835-1.3605-1.4548-2.6173-2.2257v-4e-4c-0.92362-0.5745-1.4397-1.2785-1.6815-2.0429-0.24214-0.7647-0.20825-1.5916-0.02164-2.4078 0.35769-1.5668 1.2764-3.0906 1.8628-4.0469 0.15761-0.116 0.056348 0.2156-0.5937 1.4226-0.58227 1.1033-1.6713 3.6496-0.18048 5.6373 0.040016-1.4145 0.3777-2.857 0.94485-4.2065 0.82604-1.8722 2.5536-5.1196 2.6908-7.7075 0.07104 0.0514 0.314 0.2156 0.4222 0.2772 4.1e-4 4e-4 4.1e-4 4e-4 8.2e-4 4e-4 0.31685 0.1867 0.55491 0.4594 0.86319 0.7073 0.3091 0.2482 0.69496 0.4626 1.278 0.4965 0.05594 0.0032 0.11066 0.0049 0.16415 0.0049 0.60104 0 1.0698-0.196 1.4602-0.4194 0.42429-0.2425 0.76315-0.5112 1.0845-0.6157 4.1e-4 -4e-4 8.2e-4 -4e-4 0.00123-4e-4 0.67903-0.2123 1.2184-0.588 1.5254-1.0257 0.52751 2.0791 1.7541 5.0823 2.5426 6.5478 0.4194 0.7774 1.2531 2.4295 1.6133 4.4201 0.2283-7e-3 0.4798 0.0261 0.7489 0.0951 0.942-2.4422-0.7987-5.0722-1.5949-5.8047-0.3214-0.312-0.3369-0.4516-0.1772-0.4451 0.8632 0.764 1.997 2.2997 2.4095 4.0334 0.1882 0.7905 0.2282 1.6219 0.0265 2.4422 0.0984 0.0408 0.1988 0.0853 0.3005 0.1335 1.512 0.7362 2.071 1.3764 1.8023 2.2503z" fill="#ccc"/>
<path d="m9.872 7.0652c0.00327 0.41199-0.06778 0.76274-0.22417 1.1208-0.08901 0.20416-0.19146 0.37565-0.31436 0.52428-0.04169-0.02001-0.08493-0.0392-0.12989-0.05757-0.15557-0.06656-0.29318-0.12127-0.41645-0.16782-0.12335-0.04655-0.21959-0.07836-0.31885-0.11266 0.0719-0.08697 0.21355-0.18946 0.26626-0.31808 0.08003-0.19395 0.11923-0.38341 0.12658-0.60921 0-0.00899 0.00286-0.01674 0.00286-0.02736 0.00449-0.21641-0.02409-0.40138-0.08738-0.59084-0.06615-0.19885-0.1503-0.34176-0.27194-0.46059-0.12209-0.11882-0.24377-0.17272-0.38995-0.17762-0.00694-4e-4 -0.01347-4e-4 -0.02041-4e-4 -0.1372 4e-4 -0.25643 0.04777-0.37978 0.15067-0.12944 0.1082-0.22539 0.24662-0.30538 0.43935-0.07963 0.19273-0.11883 0.38382-0.12662 0.61085-0.00119 0.00898-0.00119 0.01674-0.00119 0.02572-0.00286 0.12495 0.00531 0.23928 0.0245 0.35034-0.28092-0.14005-0.64033-0.24218-0.88859-0.30138-0.01429-0.10739-0.02246-0.21805-0.02491-0.33401v-0.03144c-0.00449-0.41077 0.06288-0.76315 0.2209-1.1208 0.15802-0.3581 0.35361-0.61534 0.62878-0.82481 0.27561-0.20906 0.54637-0.30501 0.86686-0.30828h0.01511c0.31359 0 0.58186 0.09228 0.85747 0.29195 0.2797 0.20334 0.48141 0.45732 0.64392 0.81256 0.15925 0.34625 0.23601 0.68475 0.24381 1.0861-4e-5 0.01062-4e-5 0.0196 0.00282 0.03022z" fill="#ccc"/>
<path d="m5.1322 7.4756c-0.04124 0.01185-0.08126 0.0245-0.12087 0.03798-0.22457 0.07758-0.40288 0.1632-0.57519 0.27712 0.01674-0.11923 0.01919-0.24009 0.00612-0.37525-0.00122-0.00735-0.00122-0.01347-0.00122-0.02082-0.01797-0.17925-0.05594-0.32952-0.11923-0.48141-0.06737-0.15802-0.14291-0.26949-0.24214-0.35524-0.08983-0.07758-0.17476-0.11351-0.26867-0.1127-0.00939 0-0.01919 4.1e-4 -0.02899 0.00123-0.10535 0.00898-0.19273 0.06043-0.27562 0.16128-0.08248 0.10045-0.13679 0.2254-0.17598 0.39118-0.0392 0.16537-0.04941 0.32788-0.03308 0.51448 0 0.00735 0.00164 0.01347 0.00164 0.02082 0.01796 0.18089 0.0543 0.33115 0.11882 0.48305 0.06614 0.15639 0.14291 0.26786 0.24213 0.3536 0.01674 0.0143 0.03307 0.02736 0.04941 0.03879-0.1029 0.07963-0.17203 0.1361-0.25696 0.19817-0.05431 0.0396-0.11883 0.08697-0.19396 0.1425-0.16373-0.15353-0.29154-0.34625-0.40342-0.60064-0.13229-0.30052-0.20293-0.60145-0.22416-0.95669v-0.00286c-0.0196-0.35524 0.0151-0.66066 0.11269-0.9767 0.098-0.31605 0.22866-0.5447 0.41853-0.73253 0.18946-0.18824 0.38056-0.28297 0.61085-0.29481 0.01796-8.2e-4 0.03552-0.00122 0.05308-0.00122 0.20865 4e-4 0.39484 0.06982 0.58757 0.22376 0.20906 0.167 0.36708 0.38055 0.49938 0.68148 0.1327 0.30093 0.20334 0.60187 0.22294 0.95711v0.00285c0.00939 0.14904 0.00817 0.2895-0.00367 0.42547z" fill="#ccc"/>
<path d="m6.1798 8.3252c0.02641 0.08478 0.16304 0.07073 0.24198 0.11139 0.06927 0.03568 0.12499 0.11388 0.20287 0.11613 0.07433 0.00214 0.19002-0.02575 0.19969-0.09948 0.01277-0.09741-0.12948-0.15931-0.22101-0.195-0.11779-0.04592-0.2687-0.06922-0.37919-0.00778-0.02532 0.01407-0.05296 0.04709-0.04434 0.07474z" fill="#202020"/>
<path d="m5.3728 8.3252c-0.02642 0.08478-0.16305 0.07073-0.24199 0.11139-0.06926 0.03568-0.12498 0.11388-0.20286 0.11613-0.07433 0.00214-0.19002-0.02575-0.19969-0.09948-0.01277-0.09741 0.12947-0.15931 0.22101-0.195 0.11779-0.04592 0.2687-0.06922 0.37919-0.00778 0.02532 0.01407 0.05295 0.04709 0.04434 0.07474z" fill="#202020"/>
</g>
<defs>
<clipPath id="a">
<rect width="14" height="13.922" fill="#fff"/>
</clipPath>
</defs>
</svg>
