<?xml version="1.0" encoding="UTF-8"?>
<svg version="1.1" viewBox="0 0 14 14" xmlns="http://www.w3.org/2000/svg">
<g transform="matrix(.012005 0 0 .012005 1.002 -3.2879e-6)" clip-rule="evenodd" fill-rule="evenodd" stroke-miterlimit="2.6131">
<path d="m54.232 423.01c0.34857-0.57566 0.71814-1.1429 1.0877-1.6995 59.734-92.356 153.96-146.41 242.57-146.41 90.228 0 146.95 49.669 221.53 49.669 72.366 0 116.44-49.74 220.76-49.74 78.815 0 162.38 43.098 221.9 117.62-16.456 9.0502-31.302 19.326-44.571 30.619l-863.27-0.0589z" fill="#4d9537" stroke="#61bb46" stroke-width="6.2809"/>
<path d="m661.05 191.62c37.864-48.834 66.665-117.79 56.227-188.28-61.907 4.2615-134.32 43.84-176.61 95.362-38.376 46.805-70.059 116.22-57.724 183.65 67.587 2.1107 137.5-38.415 178.11-90.73z" fill="#4d9537" stroke="#61bb46" stroke-width="6.2809"/>
<path d="m51.151 421.65c-25.724 40.471-43.523 98.477-48.247 149.35l834.55-0.0215c9.0233-55.662 39.027-108.84 86.582-149.27l-872.89-0.0615h0.04925z" fill="#ca8a02"/>
<path d="m10.483 719.03c-8.1095-51.965-9.4219-102.06-4.3277-148.03l828.05-0.0213c-8.099 49.844-1.3019 101.71 19.184 148.08l-842.91-0.0317z" fill="#c35f09" stroke="#f5821f" stroke-width="6.2809"/>
<path d="m50.95 867.05c-19.554-49.73-32.942-99.677-40.468-148.01l842.91 0.0317c26.095 59.079 74.386 109.27 142.39 135.06-2.02 4.5104-3.9687 8.8246-5.8438 12.983l-938.98-0.0632z" fill="#b01c1f" stroke="#e03a3e" stroke-width="6.2809"/>
<path d="m989.93 867.11c-23.346 51.541-36.879 78.291-69.187 127.67-4.3466 6.6316-8.8382 13.415-13.515 20.262l-778.04 0.072c-2.4925-3.7281-4.9619-7.454-7.3935-11.15-29.089-44.49-52.639-90.616-70.838-136.92l938.98 0.0632z" fill="#903b91" stroke="#963d97" stroke-width="6.2809"/>
<path d="m907.23 1015c-47.595 70.013-111.49 147.06-189.03 147.79-75.657 0.6895-95.066-49.441-197.71-48.876-102.64 0.5757-124.07 49.751-199.73 49.04-80.888-0.7507-143.7-76.416-191.58-147.88l778.04-0.072z" fill="#0092cc" stroke="#009ddc" stroke-width="6.2809"/>
</g>
</svg>
