<?xml version="1.0" encoding="UTF-8"?>
<svg version="1.1" viewBox="0 0 4.2333 4.2333" xmlns="http://www.w3.org/2000/svg" xmlns:xlink="http://www.w3.org/1999/xlink">
<defs>
<linearGradient id="a" x1="2.1525" x2="2.988" y1=".97809" y2="2.5739" gradientTransform="matrix(.73825 .61946 -.57392 .68397 1.8416 -.97738)" gradientUnits="userSpaceOnUse">
<stop stop-color="#ccccf4" offset="0"/>
<stop stop-color="#9ac2ff" offset="1"/>
</linearGradient>
</defs>
<g>
<path d="m2.0574 0.26207-1.9171 2.2847c-0.044638 0.053197-0.089461 0.10662-0.072361 0.1661 0.0171 0.059487 0.095825 0.12555 0.13469 0.15816 0.038862 0.03261 0.038543 0.032342 0.34017 0.28544 0.30162 0.25309 0.5627 0.47216 0.77837 0.65313s0.21476 0.1802 0.24684 0.20712c0.03208 0.026919 0.096122 0.080657 0.15367 0.078138 0.057549-0.00252 0.10703-0.061487 0.44962-0.46978 0.3426-0.40829 0.97777-1.1653 1.6129-1.9222 0.051223-0.061045 0.10219-0.12179 0.092966-0.1818s-0.078875-0.11846-0.33449-0.33294c-0.25561-0.21449-0.69281-0.58134-0.94528-0.79318s-0.31768-0.26657-0.3762-0.26248c-0.058516 0.004088-0.11125 0.066931-0.1638 0.12956l1.6e-6 1.35e-6z" fill="#666"/>
<path d="m2.0241 0.7957c-0.1027 0.1224-0.30809 0.36717-0.43669 0.52043-0.1286 0.15325-0.17991 0.21441-0.17101 0.27438 0.0089 0.059978 0.07769 0.1177 0.25053 0.26273 0.17284 0.14503 0.45141 0.37877 0.62289 0.52267 0.17149 0.1439 0.23657 0.1985 0.29146 0.19986 0.054893 0.00135 0.098712-0.050869 0.22685-0.20358 0.12814-0.15271 0.34287-0.40862 0.47079-0.56107 0.12792-0.15245 0.16981-0.20237 0.15617-0.25636-0.013644-0.053991-0.083098-0.11227-0.25664-0.25789-0.17354-0.14562-0.448-0.37592-0.61965-0.51995-0.17165-0.14403-0.23763-0.1994-0.2925-0.20194-0.054867-0.002542-0.097134 0.047831-0.11832 0.073074-0.021182 0.025243-0.021182 0.025243-0.12389 0.14764z" fill="url(#a)"/>
<path d="m3.535 1.2084c0.076522-0.091195 0.15286-0.18217 0.20324-0.24221 0.050379-0.06004 0.074537-0.08883 0.097587-0.094362 0.023051-0.005532 0.044278 0.012281 0.074734 0.037836s0.069729 0.058509 0.099693 0.083653c0.029965 0.025143 0.050157 0.042086 0.05309 0.058957 0.00293 0.016871-0.011073 0.033564-0.061453 0.093604-0.05038 0.060041-0.13695 0.16321-0.2237 0.26659l-0.2432-0.20407z" fill="#8c8c8c"/>
<rect transform="rotate(40)" x="2.062" y=".58115" width=".44979" height=".29352" ry=".082682" fill="#e2e2e2" fill-rule="evenodd" stroke-width=".26195"/>
<rect transform="rotate(40)" x="3.2262" y=".58115" width=".44979" height=".29352" ry=".082682" fill="#e2e2e2" fill-rule="evenodd" stroke-width=".26195"/>
<rect transform="rotate(40)" x="2.062" y="1.0253" width=".44979" height=".29352" ry=".082682" fill="#e2e2e2" fill-rule="evenodd" stroke-width=".26195"/>
<rect transform="rotate(40)" x="2.062" y="1.4645" width=".44979" height=".29352" ry=".082682" fill="#e2e2e2" fill-rule="evenodd" stroke-width=".26195"/>
<rect transform="rotate(40)" x="3.2262" y="1.0253" width=".44979" height=".29352" ry=".082682" fill="#e2e2e2" fill-rule="evenodd" stroke-width=".26195"/>
<rect transform="rotate(40)" x="3.2262" y="1.4645" width=".44979" height=".29352" ry=".082682" fill="#e2e2e2" fill-rule="evenodd" stroke-width=".26195"/>
<rect transform="rotate(40)" x="2.6441" y="1.4645" width=".44979" height=".29352" ry=".082682" fill="#e2e2e2" fill-rule="evenodd" stroke-width=".26195"/>
<rect transform="rotate(40)" x="2.6441" y="1.0253" width=".44979" height=".29352" ry=".082682" fill="#e2e2e2" fill-rule="evenodd" stroke-width=".26195"/>
<rect transform="rotate(40)" x="2.6441" y=".58115" width=".44979" height=".29352" ry=".082682" fill="#e2e2e2" fill-rule="evenodd" stroke-width=".26195"/>
</g>
</svg>
