<?xml version="1.0" encoding="UTF-8"?>
<svg version="1.1" viewBox="0 0 16 8.404" xmlns="http://www.w3.org/2000/svg">
<rect width="16" height="8.404" fill="#000" stroke-width="1.3767"/>
<g transform="matrix(1.0204 0 0 1.4013 .85714 .8404)" clip-path="url(#a)" fill="#e4e4e4">
<path d="m0 4.7808 1.2145-4.7808h1.1262l0.58518 2.0867 0.60725-2.0867h1.0599l0.99368 3.5221 2.4244-0.00458c0.2545-0.00248 0.27011-0.52876-0.01884-0.52862l-1.4119-0.01886c-0.60629 0.00587-1.2456-0.65005-1.2145-1.5236 0.00647-0.8013 0.7052-1.4323 1.5991-1.4321l3.6012-0.0032344 0.9164 1.2476 0.8944-1.2587 1.4905 0.01104-1.6341 2.2965 1.7666 2.4901-1.4828-0.00457-1.0281-1.4289-0.978 1.4289-1.5127-0.00133 1.7224-2.4622-0.75078-1.0931-3.1305 0.00457c-0.34164 0.00313-0.32911 0.54061 0.00268 0.53053l1.319 0.02018c0.55746 0.00361 1.3426 0.5829 1.323 1.4873 0.00852 1.0514-0.93848 1.5318-1.3944 1.5062l-3.4526 0.00458-0.57413-2.1511-0.57413 2.1465h-1.0898l-0.59944-2.1355-0.52674 2.1387z" fill="#e4e4e4"/>
</g>
<defs>
<clipPath id="a">
<rect width="14" height="4.7977" fill="#fff"/>
</clipPath>
</defs>
</svg>
