<?xml version="1.0" encoding="UTF-8"?>
<svg version="1.1" viewBox="0 0 16 7.004" xmlns="http://www.w3.org/2000/svg">
<g transform="scale(1.1429 1.4008)" clip-path="url(#a)">
<path d="m10.17 4.0054c0.3504 0.17667 1.0899 0.31995 1.6668 0.31995 0.6317 0 0.8939-0.27715 0.8939-0.62484 0-0.31197-0.2433-0.49534-0.941-0.82217-0.9326-0.44056-1.6166-0.78717-1.6166-1.57 0-0.81075 0.8229-1.2876 2.0781-1.2876 0.6739 0 0.9052 0.054413 1.3334 0.15471l3e-3 0.76921c-0.4202-0.10211-0.7928-0.27769-1.3716-0.27769-0.6201 0-0.8842 0.25157-0.8842 0.51093 0 0.37636 0.4068 0.55628 1.121 0.88149 0.9937 0.45471 1.5467 0.80548 1.5467 1.572 0 0.78862-0.6923 1.358-2.2541 1.358-0.6415 0-1.0836-0.054053-1.5754-0.15508z" fill="#b1b1b4" stroke-width=".99957"/>
<path d="m6.846 0.70339h-0.74313v3.611h0.74313c1.141 0 1.8607-0.62608 1.8607-1.7981 0-1.1717-0.71971-1.8129-1.8607-1.8129zm1.9955 3.9474c-0.36802 0.21367-1.0632 0.3492-1.6715 0.3492h-2.3231v-4.9686h2.3231c0.6083 0 1.3035 0.13735 1.6718 0.35048 0.89471 0.51843 1.1868 1.3482 1.1868 2.1344 0 0.78675-0.28938 1.6152-1.1871 2.1346z" fill="#b1b1b4" stroke-width="1.0017"/>
<path d="m3.2185 2.2594s1.0838-0.22063 1.0838-1.0782c0-0.8383-1.154-1.1812-2.3818-1.1812-1.1082 0-1.8367 0.1721-1.8367 0.1721v0.76163c0.50299-0.1546 0.98398-0.28629 1.6397-0.28629 0.70368 0 1.2407 0.2668 1.2407 0.64382 0 0.4546-0.53109 0.71419-1.674 0.71419h-0.52527v0.68532h0.48794c1.204 0 1.8886 0.23018 1.8886 0.79193 0 0.5015-0.61171 0.80619-1.3744 0.80619-0.66508 0-1.2735-0.18003-1.767-0.35411v0.82151c0.23702 0.051773 0.8659 0.21233 2.0372 0.21233 1.2975 0 2.4265-0.53036 2.4265-1.4652 0-0.784-0.78216-1.244-1.2453-1.244z" fill="#d0000f" stroke-width=".99686"/>
</g>
<defs>
<clipPath id="a">
<rect width="14" height="5" fill="#fff"/>
</clipPath>
</defs>
</svg>
