<?xml version="1.0" encoding="UTF-8"?>
<svg version="1.1" viewBox="0 0 14 5.95" xmlns="http://www.w3.org/2000/svg">
<g clip-path="url(#a)" fill="#ccc">
<path d="m8.1423 4.7688c0.53562 0.21475 1.6669 0.38529 2.5498 0.38529 0.9664 0 1.3663-0.32845 1.3663-0.74532 0-0.37897-0.3714-0.59373-1.4383-0.98533-1.4268-0.52426-2.4734-0.94113-2.4734-1.8823 0-0.96638 1.2595-1.5412 3.179-1.5412 1.0308 0 1.3845 0.063161 2.0389 0.18317l5e-3 0.92217c-0.643-0.12-1.2127-0.32844-2.0976-0.32844-0.9487 0-1.353 0.30318-1.353 0.61267 0 0.44846 0.62276 0.66321 1.7149 1.0548 1.5203 0.5432 2.3661 0.96007 2.3661 1.8759 0 0.94744-1.0593 1.6296-3.4481 1.6296-0.98089 0-1.6574-0.06316-2.4096-0.18949z"/>
<path d="m3.0577 0.8157h-1.1369v4.3077h1.1369c1.7452 0 2.8461-0.75164 2.8461-2.1475s-1.1009-2.1602-2.8461-2.1602zm3.0514 4.7056c-0.56214 0.25266-1.6258 0.41688-2.5556 0.41688h-3.5535v-5.9247h3.5535c0.92976 0 1.9934 0.16422 2.5568 0.41687 1.3687 0.619 1.8147 1.6106 1.8147 2.5455s-0.44214 1.9265-1.8159 2.5454z"/>
</g>
<defs>
<clipPath id="a">
<rect width="14" height="5.9499" fill="#fff"/>
</clipPath>
</defs>
</svg>
