<?xml version="1.0" encoding="UTF-8"?>
<svg version="1.0" viewBox="0 0 16 11.724" xmlns="http://www.w3.org/2000/svg">
<g transform="translate(-.22261)" fill="#ca1c02">
<g transform="matrix(.011932 0 0 .011932 -3.9022 -.0070676)">
<path transform="matrix(1.0253 0 0 1.0253 -30.273 -2.8852)" d="m1112 147.46a144.02 144.02 0 1 1-288.03 0 144.02 144.02 0 1 1 288.03 0z"/>
<rect transform="rotate(17.753)" x="598.35" y="-211.4" width="174.1" height="1019.9" rx="87.049" ry="87.049"/>
<path transform="matrix(1.0253 0 0 1.0253 -125.27 297.25)" d="m1112 147.46a144.02 144.02 0 1 1-288.03 0 144.02 144.02 0 1 1 288.03 0z"/>
</g>
<g transform="matrix(.011932 0 0 .011932 2.9789 -.0070676)">
<path transform="matrix(1.0253 0 0 1.0253 -30.273 -2.8852)" d="m1112 147.46a144.02 144.02 0 1 1-288.03 0 144.02 144.02 0 1 1 288.03 0z"/>
<rect transform="rotate(17.753)" x="598.35" y="-211.4" width="174.1" height="1019.9" rx="87.049" ry="87.049"/>
<path transform="matrix(1.0253 0 0 1.0253 -125.27 297.25)" d="m1112 147.46a144.02 144.02 0 1 1-288.03 0 144.02 144.02 0 1 1 288.03 0z"/>
</g>
</g>
</svg>
