<?xml version="1.0" encoding="UTF-8"?>
<svg version="1.1" viewBox="0 0 16 16" xmlns="http://www.w3.org/2000/svg">
<path d="m8 1c-3.8657 0-7 3.1343-7 7 0 3.8657 3.1343 7 7 7 3.8657 0 7-3.1343 7-7 0-3.8657-3.1343-7-7-7zm0 12.534c-0.54143 0-0.98-0.44-0.98-0.98 0-0.54143 0.44-0.98 0.98-0.98 0.54143 0 0.98 0.44 0.98 0.98 0 0.54143-0.43857 0.98-0.98 0.98zm1.3571-4.4528c-0.00571 0.00286-0.011429 0.00428-0.017143 0.00856-0.37429 0.17572-0.6157 0.55715-0.6157 0.97001 0 0.4-0.3243 0.72429-0.7243 0.72429-0.4 0-0.72429-0.32429-0.72429-0.72429 0-0.96429 0.56144-1.8543 1.43-2.2714 0.00571-0.00286 0.011418-0.00572 0.017133-0.00858 0.59571-0.28 0.98001-0.88572 0.98001-1.5429 0-0.94-0.7643-1.7043-1.7043-1.7043s-1.7043 0.76429-1.7043 1.7043c0 0.4-0.32429 0.72429-0.72429 0.72429s-0.72429-0.32429-0.72429-0.72429c0-1.7386 1.4143-3.1514 3.1514-3.1514 1.7386 0 3.1514 1.4143 3.1514 3.1514 0.0029 1.2086-0.69999 2.3229-1.7914 2.8443z" fill="#bec10b" stroke-width="1.0204"/>
</svg>
