<?xml version="1.0" encoding="UTF-8"?>
<svg version="1.1" viewBox="0 0 14 14" xmlns="http://www.w3.org/2000/svg">
<g transform="matrix(1.1508 0 0 1.0186 -.57077 0)" clip-path="url(#a)" clip-rule="evenodd" fill-rule="evenodd">
<path d="m8.9642 5.406c1.8301-0.24018 3.4232 1.2188 2.8632 3.1134-0.08753 0.29628-0.5887 0.92963-0.5887 0.92963s0.76531 0.71775 0.84903 1.1811c0.34911 1.933-1.09 3.0717-2.5509 3.1133-1.5474 0.04428-3.2502-1.0174-2.9152-3.0078 0.045294-0.2691 0.22247-0.52559 0.31239-0.68598 0.090597-0.16165 0.51705-0.60064 0.51705-0.60064s-0.56755-0.9139-0.62118-1.299c-0.19581-1.4066 0.63185-2.5468 2.1343-2.744zm-0.3644 2.3235c0 1.0146 1.5097 1.0014 1.5097 0.051088 0-1.0749-1.5097-1.0881-1.5097-0.051088zm0.7804 4.4308c1.1807 0 1.187-1.7941-0.020195-1.7941-1.2111 0-1.1796 1.7941 0.020195 1.7941z" fill="#cc6700" stroke-width=".89574"/>
<path d="m9.8537 0.098995v1.0274c-2.8695-0.75733-2.8503 3.7977-0.038513 3.0433v1.0281c-4.3531 1.0697-4.3723-6.0836 0.038513-5.0988z" fill="#e6e6e6" stroke-width="1.2442"/>
<path d="m4.5066 3.1859 0.00365-1.0261c0.50733 0 0.81108-0.17267 0.81108-0.5339 0-0.29867-0.050264-0.59291-1.0769-0.59291l0.00424 4.2685h-1.1027l0.012513-5.3015 1.0648 1.0106e-4c2.0448 0.0068367 2.2856 0.81297 2.2856 1.5927 0 1.1204-0.79849 1.5932-2.0024 1.5932z" fill="#e6e6e6" stroke-width="1.2448"/>
<path d="m3.3157 5.406c1.8301-0.24018 3.4232 1.2188 2.8632 3.1134-0.087573 0.29628-0.5887 0.92963-0.5887 0.92963s0.7653 0.71775 0.84902 1.1811c0.34914 1.933-1.09 3.0717-2.5509 3.1133-1.5474 0.04427-3.2502-1.0174-2.9152-3.0078 0.045297-0.2691 0.22247-0.52558 0.31239-0.68598 0.090592-0.16165 0.51706-0.60064 0.51706-0.60064s-0.56756-0.9139-0.62118-1.299c-0.19581-1.4066 0.63185-2.5468 2.1343-2.744zm-0.3644 2.3235c0 1.0146 1.5097 1.0014 1.5097 0.051088 0-1.0749-1.5097-1.0881-1.5097-0.051088zm0.78039 4.4308c1.1808 0 1.1871-1.7941-0.020197-1.7941-1.2111 0-1.1796 1.7941 0.020197 1.7941z" fill="#cc6700" stroke-width=".89574"/>
</g>
<defs>
<clipPath id="a">
<rect width="12.753" height="14" fill="#fff"/>
</clipPath>
</defs>
</svg>
