<?xml version="1.0" encoding="UTF-8"?>
<svg version="1.1" viewBox="0 0 14 14" xmlns="http://www.w3.org/2000/svg">
<g transform="matrix(1.1614 0 0 1 -.57631 0)" clip-path="url(#a)" clip-rule="evenodd" fill-rule="evenodd">
<path d="m4.0443 14h-1.8974l1.5352-3.174c-0.41488 0-1.5612-0.22658-1.9793-0.61306-0.54209-0.50097-0.98088-1.5142-0.67574-2.7193 0.33691-1.3303 1.7933-2.3326 3.3785-1.9195 1.1335 0.29538 1.796 0.87909 1.9909 2.1531 0.089774 0.58675 0.052659 1.1574-0.32194 2.0201zm-1.4059-5.7066c0 1.3811 2.0791 1.4192 2.0791 0.053321 0-1.4261-2.0791-1.4394-2.0791-0.053321z" fill="#c00" stroke-width=".88492"/>
<path d="m8.8869 5.5064c1.8134-0.24464 3.3919 1.2415 2.837 3.1712-0.08678 0.30178-0.58327 0.9469-0.58327 0.9469s0.75825 0.73111 0.84122 1.203c0.34596 1.9689-1.08 3.1288-2.5275 3.1711-1.5332 0.04509-3.2204-1.0363-2.8886-3.0636 0.04488-0.27412 0.22043-0.53541 0.30953-0.69876 0.089759-0.16462 0.51232-0.61176 0.51232-0.61176s-0.56237-0.93088-0.6155-1.3231c-0.19402-1.4327 0.62607-2.5941 2.1148-2.795zm-0.36106 2.3666c0 1.0334 1.4959 1.02 1.4959 0.052031 0-1.0949-1.4959-1.1083-1.4959-0.052031zm0.77326 4.5132c1.17 0 1.1762-1.8274-0.02002-1.8274-1.2 0-1.1688 1.8274 0.02002 1.8274z" fill="#c00" stroke-width=".88509"/>
<path d="m9.8535 0.10082v1.0465c-2.8696-0.77139-2.8503 3.8683-0.038522 3.0998v1.0472c-4.3531 1.0895-4.3723-6.1966 0.038519-5.1935z" fill="#e6e6e6" stroke-width="1.2351"/>
<path d="m4.5069 3.2447 0.00366-1.045c0.50732 0 0.81108-0.17586 0.81108-0.54376 0-0.30419-0.050265-0.60386-1.0769-0.60386l0.00422 4.3473h-1.1027l0.012505-5.3994 1.0648 1.0292e-4c2.0448 0.0069629 2.2857 0.82797 2.2857 1.622 0 1.1411-0.7985 1.6226-2.0024 1.6226z" fill="#e6e6e6" stroke-width="1.2356"/>
</g>
<defs>
<clipPath id="a">
<rect width="12.966" height="14.234" fill="#fff"/>
</clipPath>
</defs>
</svg>
