<?xml version="1.0" encoding="UTF-8"?>
<svg version="1.1" viewBox="0 0 14 12.619" xmlns="http://www.w3.org/2000/svg">
<g transform="matrix(1.0396 0 0 1.0396 -.22852 0)" clip-path="url(#a)" clip-rule="evenodd" fill="#cc2000" fill-rule="evenodd">
<path d="m1.0845 9.848s0.98149 0.03059 1.1284-0.59366l0.06026-1.1808 1.1382-0.42475c0.90263-0.39722 1.5121-1.1298 1.5121-2.3616v-1.2403c0-1.0108-0.9811-1.2275-1.6141-1.0194l-3.0583 1.1044-0.031311 4.8212c0.043035 0.93441 0.86472 0.895 0.86472 0.895zm0.93782-4.6501c0-0.06787 0.04247-0.10619 0.17421-0.1656l0.68377-0.25916c0.21669-0.08296 0.28457-0.05418 0.28457 0.15713v1.0279c0 0.12419-0.12835 0.22622-0.27179 0.27609l-0.65838 0.23361c-0.15175 0.05418-0.21238 0.05726-0.21238-0.1105z"/>
<path d="m8.2369 3.5842c0.103-0.03615 1.4781-0.52679 1.4781-0.52679 0.14762-0.05725 0.11862-0.3769 0.11862-0.44169 0-0.97587-0.85363-1.425-1.461-1.2063l-1.4271 0.49263c-0.8389 0.31426-1.699 0.77304-1.8859 2.1917v2.7354c0 1.6863 1.3168 1.3805 1.8349 1.1893 0.51834-0.19114 2.2652-0.83044 2.4134-0.88661 0.40709-0.1539 0.71274-0.57036 0.65029-1.1055-0.04356-0.33321-0.09069-0.66596-0.14126-0.99818-0.01708-0.09758-0.02144-0.1953-0.13596-0.15299l-1.4274 0.52666c-0.13583 0.05109-0.22069 0.07217-0.22069 0.23792 0 0.1656 0.01271 0.30149-0.22929 0.38229 0 0-0.67545 0.23254-0.75626 0.26332-0.08079 0.03078-0.21237 0.04355-0.21237-0.19546v-2.37c0-0.11466 0.04248-0.16451 0.19545-0.22085 0.15298-0.05633 0.8072-0.28041 0.8072-0.28041 0.12617-0.04031 0.22069-0.04354 0.22069 0.09343v0.14436c0 0.19667 0.07559 0.16375 0.17859 0.12772z"/>
<path d="m12.682 0.032706-2.37 0.82506c-0.0956 0.031865-0.1221 0.11989-0.1221 0.23993v5.5388c0 0.1815 0.0574 0.19752 0.1868 0.15277 0 0 2.9468-1.0596 3.0243-1.0872 0.0776-0.02766 0.1019-0.01919 0.1019-0.11901v-0.50954c0-0.17636-0.0243-0.24531-0.1868-0.18698l-2.1577 0.78151c-0.1487 0.05415-0.2039 0.0838-0.2039-0.11902v-1.444c0-0.14759 0.0286-0.15082 0.0849-0.16991 0.0564-0.01923 1.2573-0.45892 1.2573-0.45892 0.0892-0.03494 0.2039-0.07726 0.2039-0.18668v-0.47586c0-0.09557-0.0531-0.16344-0.272-0.08511l-1.0704 0.39076c-0.1805 0.07341-0.2039 0.03401-0.2039-0.1359v-1.4271c0-0.06464-0.0223-0.09434 0.1359-0.15266l1.6821-0.62884c0.1284-0.047858 0.1529-0.025537 0.1529-0.15297v-0.47555c0-0.13911-0.036-0.1836-0.2432-0.11358z"/>
<path d="m8.9231 9.1119-2.8924 3.1728c-0.06048 0.0767-0.02554 0.1022 0.0511 0.0637l3.7462-2.3445c0.07003-0.0446 0.08295-0.05429 0.14036-0.03828 0.05709 0.016 1.4016 0.98128 1.4016 0.98128 0.0955 0.0637 0.1434 0.0351 0.1145-0.0383l-0.7007-1.5292c-0.0382-0.08281-0.0511-0.13699-0.013-0.17838l2.8289-3.0837c0.0734-0.10203 0.0318-0.15297-0.089-0.08925l-3.5043 2.1789c-0.08293 0.05094-0.12741 0.04464-0.1785 0.01278l-1.2997-0.87923c-0.13712-0.07648-0.17822-0.04463-0.14005 0.10204l0.5862 1.4527c0.03801 0.07971 0.01585 0.1402-0.05125 0.21669z" stroke="#fff" stroke-miterlimit="2.613" stroke-width=".10204"/>
</g>
<defs>
<clipPath id="a">
<rect width="14" height="12.138" fill="#fff"/>
</clipPath>
</defs>
</svg>
