<?xml version="1.0" encoding="UTF-8"?>
<svg version="1.1" viewBox="0 0 14 14" xmlns="http://www.w3.org/2000/svg">
<g transform="matrix(.10931 0 0 .10931 .13362 -.53802)" fill="#666">
<circle cx="58.075" cy="13.716" r="4.039"/>
<path d="m58.075 107.3-27.825-15.838 7.535-4.062c0.019 0.044 0.031 0.08 0.051 0.125 5.45 7.98 16.47 8.57 25.22 7.76 5.19-1.655-1.06 2.033-0.73 3.49 0.94 2.7 4.047 1.088 5.482 0.668 3.77-2.16 7.5-4.563 9.838-8.747 1.287-3.878 0.724-1.814 3.75-5.09 2.77-2.86 3-7.33 6.24-9.84 3.47-3.12 5.02-7.55 6.87-11.67 6.24-5.78 11.96-13.38 11.74-22.31 0.34-6.76-3.84-12.78-8.83-16.93-8.22-6.71-18.67-10.14-29.04-11.73-2.41-0.89-4.8 1.96-3.14 4.12 4.75 1.95 10.08 1.89 14.83 3.92 7.63 2.8 15.48 7.04 19.62 14.34 3.53 7.16-0.16 15.82-5.54 21l-0.18 0.18c-2.04-3.3-4.2-6.63-7.38-8.95-8.156-6.182-18.558-8.406-28.57-9.014v-19.217l-50.09 27v56.99l0.07-0.038v1.038l50.079 28.505 50.08-28.505v-25.7zm-0.059-43.565h0.06c5.65 0.33 11.49 1.21 16.37 4.26 0.644 0.494 1.383 0.802-0.533 1.385-1.422 0.513-6.265 1.407-9.925 1.917 0 0-3.304 0.208-4.452 0.158-0.194-8e-3 -0.737-0.037-1.52-0.087zm-3.548 14.673c3.073-0.293 6.175-0.152 9.058 0.538 1.72 0.49 3.84 0.49 4.94 2.11-5.6 0.95-11.345 1.071-16.97 0.7-0.789-0.161-1.673-0.244-2.56-0.366zm3.088 11.837c-5.02-0.24-10.81-0.67-14.48-4.57 10.02 2.51 20.59 2.43 30.52-0.5-4.33 3.85-10.43 4.94-16.04 5.07zm17.91-11.82c-1.345-1.67-3.157-2.545-5.06-3.07 3-0.8 6.01-1.61 8.99-2.49 1.68 3.1-1.275 4.82-3.93 5.56zm9.53-25.2c2.38 2.03 3.62 4.94 4.41 7.89-1.8 1.3-3.65 2.53-5.52 3.72-1.27 0.35-2.77 1.98-3.99 0.58-6.223-4.809-14.171-6.574-21.88-7.073v-14.157c9.55 0.15 19.76 2.41 26.98 9.04z"/>
</g>
<g transform="matrix(.10931 0 0 .10931 .13362 -.53802)">
<path d="m69.24 11.49c-1.66-2.16 0.73-5.01 3.14-4.12 10.37 1.59 20.82 5.02 29.04 11.73 4.99 4.15 9.17 10.17 8.83 16.93 0.22 8.93-5.5 16.53-11.74 22.31-1.85 4.12-3.4 8.55-6.87 11.67-3.24 2.51-3.47 6.98-6.24 9.84-3.026 3.276-2.463 1.213-3.75 5.09-2.338 4.185-6.068 6.587-9.838 8.747-1.435 0.42-4.543 2.033-5.482-0.668-0.33-1.457 5.92-5.145 0.73-3.49-8.75 0.81-19.77 0.22-25.22-7.76-1.048-2.416-0.903-3.166-0.91-4.56-3.95-2.85-6.74-7.22-6.4-12.26-4.38-3.04-8.54-7.37-8.73-13.02-0.75-5.54 3.55-10.02 7.92-12.68 8.43-5.05 18.55-6.31 28.21-6.29 10.04 0.6 20.48 2.82 28.66 9.02 3.18 2.32 5.34 5.65 7.38 8.95l0.18-0.18c5.38-5.18 9.07-13.84 5.54-21-4.14-7.3-11.99-11.54-19.62-14.34-4.75-2.029-10.08-1.969-14.83-3.919zm-35.76 34.55c-4.98 3.99-1.3 12.13 3.84 13.72 6.86-5.61 15.97-7.23 24.6-7.18 7.74 0.49 15.73 2.25 21.98 7.08 1.22 1.4 2.72-0.23 3.99-0.58 1.87-1.19 3.72-2.42 5.52-3.72-0.79-2.95-2.03-5.86-4.41-7.89-7.22-6.63-17.43-8.89-26.98-9.04-9.87-0.22-20.69 1.09-28.54 7.61zm34.512 19.502c3.66-0.51 8.503-1.403 9.925-1.917 1.917-0.583 1.177-0.891 0.533-1.385-4.88-3.05-10.72-3.93-16.37-4.26-6.18-0.02-12.67 0.63-18.14 3.72-0.56 0.342-2.357 0.675 0.01 1.35 5.316 1.856 18.443 2.6 19.59 2.65 1.148 0.05 4.452-0.158 4.452-0.158zm-28.242 1.988c0.5 1.298 1.516 3.22 3.547 4.4 0.859-0.571 2.173-1.225 3.273-1.805 0.714-0.289 1.477-0.797 2.21-1.054-0.358-0.025-0.895-0.088-1.952-0.134-2.535-0.309-4.688-0.827-7.078-1.407zm34.66 2.07c1.902 0.525 3.715 1.4 5.06 3.07 2.655-0.74 5.61-2.46 3.93-5.56-2.98 0.88-5.99 1.69-8.99 2.49zm-24.722 5.088c1.687 0.999 4.002 0.942 5.812 1.312 5.625 0.371 11.37 0.25 16.97-0.7-1.1-1.62-3.22-1.62-4.94-2.11-5.73-1.37-12.322-0.583-17.842 1.498zm-2.608 5.232c3.67 3.9 9.46 4.33 14.48 4.57 5.61-0.13 11.71-1.22 16.04-5.07-9.93 2.93-20.5 3.01-30.52 0.5z" fill="#01015b"/>
</g>
<circle cx="6.9195" cy=".4415" r=".4415" fill="#01015b" stroke-width=".10931"/>
<polygon transform="matrix(.10931 0 0 .10931 .13362 -.53802)" points="62.08 127.24 12 98.74 12 73.04 62.08 101.54" fill="#01015b"/>
<polygon transform="matrix(.10931 0 0 .10931 .13362 -.53802)" points="62.08 127.24 112.16 98.74 112.16 73.04 62.08 101.54" fill="#f00020"/>
<polygon transform="matrix(.10931 0 0 .10931 .13362 -.53802)" points="11.93 97.74 62.02 70.74 62.02 13.75 11.93 40.75" fill="#cb9a01"/>
<g transform="matrix(.10931 0 0 .10931 .13362 -.53802)" fill="#3737fd">
<path d="m69.24 11.49c-1.66-2.16 0.73-5.01 3.14-4.12 10.37 1.59 20.82 5.02 29.04 11.73 4.99 4.15 9.17 10.17 8.83 16.93 0.22 8.93-5.5 16.53-11.74 22.31-1.85 4.12-3.4 8.55-6.87 11.67-3.24 2.51-3.47 6.98-6.24 9.84-3.026 3.276-2.463 1.213-3.75 5.09-2.338 4.185-6.068 6.587-9.838 8.747-1.435 0.42-4.543 2.033-5.482-0.668-0.33-1.457 5.92-5.145 0.73-3.49-8.75 0.81-19.77 0.22-25.22-7.76-1.048-2.416-0.903-3.166-0.91-4.56-3.95-2.85-6.74-7.22-6.4-12.26-4.38-3.04-8.54-7.37-8.73-13.02-0.75-5.54 3.55-10.02 7.92-12.68 8.43-5.05 18.55-6.31 28.21-6.29 10.04 0.6 20.48 2.82 28.66 9.02 3.18 2.32 5.34 5.65 7.38 8.95l0.18-0.18c5.38-5.18 9.07-13.84 5.54-21-4.14-7.3-11.99-11.54-19.62-14.34-4.75-2.029-10.08-1.969-14.83-3.919zm-35.76 34.55c-4.98 3.99-1.3 12.13 3.84 13.72 6.86-5.61 15.97-7.23 24.6-7.18 7.74 0.49 15.73 2.25 21.98 7.08 1.22 1.4 2.72-0.23 3.99-0.58 1.87-1.19 3.72-2.42 5.52-3.72-0.79-2.95-2.03-5.86-4.41-7.89-7.22-6.63-17.43-8.89-26.98-9.04-9.87-0.22-20.69 1.09-28.54 7.61zm34.512 19.502c3.66-0.51 8.503-1.403 9.925-1.917 1.917-0.583 1.177-0.891 0.533-1.385-4.88-3.05-10.72-3.93-16.37-4.26-6.18-0.02-12.67 0.63-18.14 3.72-0.56 0.342-2.357 0.675 0.01 1.35 5.316 1.856 18.443 2.6 19.59 2.65 1.148 0.05 4.452-0.158 4.452-0.158zm-28.242 1.988c0.5 1.298 1.516 3.22 3.547 4.4 0.859-0.571 2.173-1.225 3.273-1.805 0.714-0.289 1.477-0.797 2.21-1.054-0.358-0.025-0.895-0.088-1.952-0.134-2.535-0.309-4.688-0.827-7.078-1.407zm34.66 2.07c1.902 0.525 3.715 1.4 5.06 3.07 2.655-0.74 5.61-2.46 3.93-5.56-2.98 0.88-5.99 1.69-8.99 2.49zm-24.722 5.088c1.687 0.999 4.002 0.942 5.812 1.312 5.625 0.371 11.37 0.25 16.97-0.7-1.1-1.62-3.22-1.62-4.94-2.11-5.73-1.37-12.322-0.583-17.842 1.498zm-2.608 5.232c3.67 3.9 9.46 4.33 14.48 4.57 5.61-0.13 11.71-1.22 16.04-5.07-9.93 2.93-20.5 3.01-30.52 0.5z" fill="#3737fd"/>
</g>
<circle cx="6.9195" cy=".4415" r=".4415" fill="#3737fd" stroke-width=".10931"/>
<polygon transform="matrix(.10931 0 0 .10931 .13362 -.53802)" points="62.08 127.24 12 98.74 12 73.04 62.08 101.54" fill="#3737fd"/>
<polygon transform="matrix(.10931 0 0 .10931 .13362 -.53802)" points="62.08 127.24 112.16 98.74 112.16 73.04 62.08 101.54" fill="#cc001b"/>
</svg>
