<?xml version="1.0" encoding="UTF-8"?>
<svg version="1.0" viewBox="0 0 72.951 66.807" xmlns="http://www.w3.org/2000/svg">
<g transform="translate(-61.686 -312.87)" clip-rule="evenodd" fill-rule="evenodd" stroke-width=".12329">
<path d="m102.58 326.76-0.0577 52.915-14.177-4.6109v-62.196l18.097 4.7845c11.584 3.1133 18.673 9.165 18.557 19.771-0.11513 12.336-5.8208 17.292-16.944 14.064v-24.325c0-2.9399-5.475-3.112-5.475-0.40271z" fill="#de0029"/>
<path d="m81.827 364.8-6.6855 2.2486c-4.323 1.499-8.011-2.0169-4.0344-3.4588l3.2272-1.1521-12.161-3.8628c-3.7464 1.2687-7.2622 3.9778-7.0311 7.7824 0.23055 3.8615 9.048 4.7843 15.849 5.8795 6.3392 1.0371 12.103 0.46076 17.348-1.3838v-3.9776zm20.805 14.872 12.391-4.3235-12.506-3.9767v8.0115z" fill="#f3c202"/>
<path d="m135.6 368.09 0.23038-0.0581c5.4176-1.9016 7.7229-4.5541 7.147-7.0318-0.92222-4.15-7.55-6.3985-17.751-7.148-7.3191-0.51843-14.523 1.0951-21.554 3.5158l-1.1528 0.40395 12.622 3.9196 7.3768-2.479c7.7229-1.4406 10.836 1.0953 3.4006 3.4588l-3.6887 1.2674zm-47.259-18.33-5.591 1.9016 5.591 1.7294z" fill="#326db3"/>
<path d="m115.02 375.35 20.575-7.2622-13.371-4.1512-19.71 6.7441v0.69254zm-26.684-12.739-6.5126 2.1904 6.5126 2.0752zm14.177 3.4019v-8.2431l12.622 3.9196zm-28.183-3.574 14.005-5.0148v-4.0349l-5.5908-1.7294-20.287 6.8594c-0.05768 0-0.17287 0.0569-0.28806 0.0569z" fill="#00aa9e"/>
<path d="m102.58 326.76-0.0577 52.915-14.177-4.6109v-62.196l18.097 4.7845c11.584 3.1133 18.673 9.165 18.557 19.771-0.11513 12.336-5.8208 17.292-16.944 14.064v-24.325c0-2.9399-5.475-3.112-5.475-0.40271z" fill="#cc0026"/>
<path d="m81.827 364.8-6.6855 2.2486c-4.323 1.499-8.011-2.0169-4.0344-3.4588l3.2272-1.1521-12.161-3.8628c-3.7464 1.2687-7.2622 3.9778-7.0311 7.7824 0.23055 3.8615 9.048 4.7843 15.849 5.8795 6.3392 1.0371 12.103 0.46076 17.348-1.3838v-3.9776zm20.805 14.872 12.391-4.3235-12.506-3.9767v8.0115z" fill="#caa202"/>
<path d="m135.6 368.09 0.23038-0.0581c5.4176-1.9016 7.7229-4.5541 7.147-7.0318-0.92222-4.15-7.55-6.3985-17.751-7.148-7.3191-0.51843-14.523 1.0951-21.554 3.5158l-1.1528 0.40395 12.622 3.9196 7.3768-2.479c7.7229-1.4406 10.836 1.0953 3.4006 3.4588l-3.6887 1.2674zm-47.259-18.33-5.591 1.9016 5.591 1.7294z" fill="#2d639f"/>
<path d="m115.02 375.35 20.575-7.2622-13.371-4.1512-19.71 6.7441v0.69254zm-26.684-12.739-6.5126 2.1904 6.5126 2.0752zm14.177 3.4019v-8.2431l12.622 3.9196zm-28.183-3.574 14.005-5.0148v-4.0349l-5.5908-1.7294-20.287 6.8594c-0.05768 0-0.17287 0.0569-0.28806 0.0569z" fill="#00ccbe"/>
</g>
</svg>
