<?xml version="1.0" encoding="UTF-8"?>
<svg shape-rendering="crispEdges" version="1.1" viewBox="0 0 4.2333 1.8531" xmlns="http://www.w3.org/2000/svg">
<g fill="#999">
<path d="m2.8853-0.0014616 1.0231 0.0029233-0.00146 0.27187 0.3254 0.004382-9.17e-4 0.47064v0.2894l9.725e-4 0.54227-0.31962-0.00292 0.00146 0.27625-1.029-0.00146 0.00146-0.27332 1.0261-0.00146-0.00438-0.54373-1.0217-0.00438 0.00146-0.27332 1.0202 0.00146-0.00146-0.4838-1.0188-0.002923z"/>
<path d="m0.0010338 1.8521 0.26465 0.00103 0.001034-0.79479h0.79188v-0.79087l-0.26465-0.0018585 0.0026447-0.26562h-0.79555v0.26459l0.79291 0.00103v0.52917h-0.79394z"/>
<path d="m2.118 0.26402 0.52952 0.0016-0.00103-0.26562h-0.52712l-0.00137 0.26402-0.26545-9.2696e-4v1.3244l-0.79394 0.00103 0.00103 0.26355 1.0586 0.00103z"/>
</g>
</svg>
