<?xml version="1.0" encoding="UTF-8"?>
<svg shape-rendering="crispEdges" version="1.1" viewBox="0 0 4.2333 1.8531" xmlns="http://www.w3.org/2000/svg">
<g fill="#0185cf">
<path d="m2.4947 1.6553h1.2139c0.00382 0 0.00643 0.00435 0.00643 0.00869v0.17616c0 0.00869 0.00397 0.013037 0.00782 0.013037h0.30048c0.00401 0 0.00779-0.00435 0.00779-0.013037v-0.17182c0-0.00652 0.00401-0.013037 0.00782-0.013037h0.18659c0.00525 0 0.00782-0.00654 0.00782-0.013006v-0.21117c0-0.00654-0.00258-0.013037-0.00782-0.013037h-0.18659c-0.00382 0-0.00782-0.00652-0.00782-0.013036v-1.216c-7e-7 -0.10229-0.022905-0.16743-0.061458-0.18904h-0.1402c-0.020334 0.00866-0.042435 0.024168-0.066141 0.047792l-1.3103 1.342c-0.052138 0.054296-0.070412 0.15245-0.057357 0.19808 0.010394 0.039135 0.040315 0.067392 0.09906 0.067393zm0.27026-0.26763 0.93184-0.9585c0.00654-0.00869 0.019616-0.006501 0.019616 0.01738v0.9585c0 0.00654-0.00401 0.013037-0.00782 0.013037h-0.9372c-0.00903 0-0.01304-0.00432-0.01425-0.00869-0.00143-0.00869 0.0012-0.015221 0.00779-0.021723z" stroke-width=".37452"/>
<path d="m0.0010338 1.8521 0.26465 0.00103 0.001034-0.79479h0.79188v-0.79087l-0.26465-0.0018585 0.0026447-0.26562h-0.79555v0.26459l0.79291 0.00103v0.52917h-0.79394z"/>
<path d="m2.118 0.26402 0.52952 0.0016-0.00103-0.26562h-0.52712l-0.00137 0.26402-0.26545-9.2696e-4v1.3244l-0.79394 0.00103 0.00103 0.26355 1.0586 0.00103z"/>
</g>
</svg>
