<?xml version="1.0" encoding="UTF-8"?>
<svg version="1.1" viewBox="0 0 16 12.156" xmlns="http://www.w3.org/2000/svg">
<path fill-rule="evenodd" d="m1.2003 10.347c-1.2587-0.35224-1.4724-1.0793-0.89709-1.4983 0.53202-0.38843 1.4366-0.67847 1.4366-0.67847l3.7357-1.3061v1.4881l-2.6884 0.94591c-0.4754 0.16962-0.54819 0.40482-0.16174 0.52864 0.38645 0.12382 1.0848 0.088766 1.5596-0.07859l1.2893-0.46023v1.3315c-0.0815 0.0147-0.17329 0.02883-0.25705 0.0424-1.3453 0.21476-2.7238 0.10669-4.017-0.31492zm7.8814 0.15492 4.192-1.4644c0.47599-0.16962 0.54877-0.40369 0.16232-0.52751-0.38644-0.12382-1.0848-0.088767-1.5596 0.079156l-2.7935 0.96456v-1.5373l0.16174-0.053713c0.63114-0.19986 1.2818-0.33496 1.9415-0.40313 1.1351-0.12269 2.5249 0.016961 3.6155 0.42178 1.2298 0.38108 1.3684 0.94251 1.0559 1.3292-0.3125 0.38673-1.0785 0.66208-1.0785 0.66208l-5.6962 2.0066zm0.49043-9.5309c2.2072 0.74576 2.9552 1.6741 2.9552 3.7661 0 2.0383-1.2789 2.8111-2.9033 2.0394v-3.8012c0-0.44553-0.0832-0.85601-0.50833-0.97248-0.32579-0.1029-0.52797 0.19506-0.52797 0.64059v9.5128l-2.6064-0.81417v-11.342c1.1085 0.20241 2.723 0.67847 3.5907 0.96852z" fill="#999" stroke-width=".057149"/>
</svg>
