<?xml version="1.0" encoding="UTF-8"?>
<svg version="1.1" viewBox="0 0 4.2333 1.8531" xmlns="http://www.w3.org/2000/svg">
<g>
<path d="m0.0010338 1.8521 0.26465 0.00103 0.001034-0.79479h0.79188v-0.79087l-0.26465-0.0018585 0.0026447-0.26562h-0.79555v0.26459l0.79291 0.00103v0.52917h-0.79394z" fill="#33b4ff"/>
<path d="m2.118 0.26402 0.52952 0.0016-0.00103-0.26562h-0.52712l-0.00137 0.26402-0.26545-9.2696e-4v1.3244l-0.79394 0.00103 0.00103 0.26355 1.0586 0.00103z" fill="#34b6fe"/>
<path d="m3.4357 1.8528c-0.10657-0.008328-0.15114-0.12542-0.17131-0.17531-0.020163-0.049905-0.61796-1.6775-0.61796-1.6775h0.2974l0.49508 1.3268c0.025791 0.074863 0.084479 0.093298 0.11619 0.00596 0.025919-0.070682 0.49253-1.3328 0.49253-1.3328h0.18578s-0.57897 1.5823-0.60203 1.6364c-0.023057 0.054067-0.08911 0.22481-0.19568 0.21649z" clip-rule="evenodd" display="none" fill="#009bff" fill-rule="evenodd" stroke-width=".34523"/>
<path d="m2.6464 3.3e-6 0.67749 1.8502 0.26489 0.0058465 0.64459-1.8561h-0.27932l-0.49693 1.5137-0.5104-1.5137z" fill="#34b6fe"/>
</g>
</svg>
