<?xml version="1.0" encoding="UTF-8"?>
<svg version="1.1" viewBox="0 0 14 9.131" xmlns="http://www.w3.org/2000/svg" xmlns:xlink="http://www.w3.org/1999/xlink">
<radialGradient id="g" cx="157.5" cy="52.96" r="22.196" gradientTransform="matrix(.084517 0 0 .084517 -1.8353 -.34956)" gradientUnits="userSpaceOnUse">
<stop stop-color="#fff" offset=".43"/>
<stop stop-color="#7A7A7A" offset=".64"/>
<stop offset=".99"/>
</radialGradient>
<path d="m12.279 3.573c0.13438-0.012762 0.23141-0.013016 0.29133-0.00127v0.00879c0.19152 0.12187 0.29615 0.24417 0.30494 0.38337-0.06989 0.2178-0.2877 0.46197-0.63624 0.73217-0.4181 0.31339-0.99324 0.6359-1.6991 0.96695-0.3204 0.14613-0.65771 0.28651-1.0123 0.42292-0.40687 0.15669-0.34584 1.2456-0.04725 1.1373 0.53279-0.19304 1.032-0.39816 1.4951-0.61021 0.78423-0.36613 1.4205-0.72338 1.8998-1.0892 0.60996-0.47076 0.95842-0.91489 1.0193-1.342 0.11291-0.41295 0.01428-0.78085-0.29885-1.1137-0.1228-0.13075-1.3775 0.51065-1.3166 0.5049z" fill="url(#g)" stroke-width=".084517"/>
<radialGradient id="f" cx="50.105" cy="85.897" r="22.91" gradientTransform="matrix(.084517 0 0 .084517 -1.8353 -.34956)" gradientUnits="userSpaceOnUse">
<stop stop-color="#fff" offset="0"/>
<stop offset="1"/>
</radialGradient>
<path d="m5.2145 7.3119c-0.30621 0.05781-0.60388 0.10827-0.8958 0.15492l0.0088-0.0088c-0.59238 0.08714-1.1068 0.13066-1.5509 0.13945h-0.0088c-0.38328 0-0.67977-0.02603-0.87129-0.095929-0.13075-0.05232-0.26141-0.04353-0.39216 0.01758-0.13945 0.05232-0.22659 0.15669-0.27891 0.28736-0.0524 0.13945-0.04361 0.2702 0.01758 0.40095 0.06077 0.13075 0.15669 0.22667 0.28744 0.27899 0.27891 0.10429 0.68831 0.15669 1.2547 0.15669 0.47921-0.0088 1.0371-0.05232 1.6818-0.14824h0.0088c0.32226-0.04471 0.65349-0.10066 0.99299-0.16641 0.32116-0.06178 0.0704-1.0777-0.25423-1.0166z" fill="url(#f)" stroke-width=".084517"/>
<radialGradient id="a" cx="61.442" cy="37.691" r="52.493" gradientTransform="matrix(.084517 0 0 .084517 -1.8353 -.34956)" gradientUnits="userSpaceOnUse">
<stop stop-color="#fff" offset=".8128"/>
<stop stop-color="#575757" offset="1"/>
</radialGradient>
<path d="m5.1463 1.699c-0.29471 0.097701-0.58215 0.19937-0.86258 0.30434-0.65349 0.25296-1.2374 0.50549-1.7602 0.77569h0.0088c-0.56635 0.28744-1.0281 0.56643-1.3854 0.86258v-0.00879c-0.4357 0.33976-0.73184 0.67106-0.88888 0.98445v0.00879c-0.24383 0.44447-0.26141 0.85412-0.06085 1.2374 0.12196 0.37458 0.49654 0.57513 1.1327 0.60996 0.36579 0.02603 0.86258-0.02637 1.49-0.14824 0.31525-0.06508 0.6747-0.15433 1.0804-0.26259 0.24442-0.06533-0.04631-1.0716-0.2871-1.0063-0.37331 0.10167-0.70589 0.18239-1.0026 0.24079-0.51403 0.10438-0.9149 0.1479-1.2198 0.13066-0.12196 0-0.2091-0.00879-0.24383-0.00879l-0.0088-0.00879c-0.02603-0.087136-0.01724-0.19151 0.04361-0.29615v-0.00879c0.11343-0.2003 0.31374-0.4181 0.60997-0.64469 0.32252-0.25262 0.72338-0.50524 1.2111-0.74941 0.488-0.26141 1.0371-0.49653 1.6471-0.73183v0.00879c0.17275-0.065078 0.34855-0.12889 0.52671-0.19092 0.44236-0.15365 0.33376-1.2186-0.03026-1.0982z" fill="url(#a)" stroke-width=".084517"/>
<path d="m9.487 1.7553c0.33646-0.043273 0.66473-0.07353 0.98336-0.091615 0.62746-0.052316 1.1938-0.043611 1.6903 0.00879 0.14816 0.01758 0.27012-0.026031 0.38328-0.11317 0.11342-0.095926 0.17436-0.20935 0.19185-0.34855 0.0175-0.14824-0.02612-0.2789-0.11317-0.38362-0.09593-0.11317-0.20935-0.18273-0.34855-0.19151-0.5579-0.061106-1.185-0.061106-1.8733-0.01758-0.44202 0.029919-0.90011 0.080207-1.3775 0.15103-0.21941 0.032286 0.15636 1.0255 0.46374 0.98622z" fill="#ccc" stroke-width=".084517"/>
<radialGradient id="e" cx="162.87" cy="1.0562" r="29.353" gradientTransform="matrix(.084517 0 0 .084517 -1.8353 -.34956)" gradientUnits="userSpaceOnUse">
<stop stop-color="#fff" offset="0"/>
<stop offset="1"/>
</radialGradient>
<path d="m9.487 1.7553c0.33646-0.043273 0.66473-0.07353 0.98336-0.091615 0.62746-0.052316 1.1938-0.043611 1.6903 0.00879 0.14816 0.01758 0.27012-0.026031 0.38328-0.11317 0.11342-0.095926 0.17436-0.20935 0.19185-0.34855 0.0175-0.14824-0.02612-0.2789-0.11317-0.38362-0.09593-0.11317-0.20935-0.18273-0.34855-0.19151-0.5579-0.061106-1.185-0.061106-1.8733-0.01758-0.44202 0.029919-0.90011 0.080207-1.3775 0.15103-0.21941 0.032286 0.15636 1.0255 0.46374 0.98622z" fill="url(#e)" stroke-width=".084517"/>
<linearGradient id="d" x1="53.883" x2="44.935" y1="44.714" y2="37.913" gradientTransform="matrix(.084517 0 0 .084517 -1.8353 -.34956)" gradientUnits="userSpaceOnUse">
<stop offset="0"/>
<stop stop-color="#fff" offset="1"/>
</linearGradient>
<path d="m0.78821 4.9003c0 0.56491 0.36156 0.52375 0.36097 0.51919 0-2.537e-4 -5.92e-4 -2.537e-4 -0.0021-2.537e-4l-0.0088-0.00879c-0.02603-0.087136-0.01724-0.19151 0.04361-0.29615v-0.00879c0.11342-0.2003 0.31373-0.4181 0.60996-0.64469 0.32252-0.25262 0.72338-0.50524 1.2111-0.74941 0.488-0.26141 1.0371-0.49653 1.6471-0.73183v0.00879c0.17275-0.065078 0.34855-0.12889 0.52671-0.19092 0.19481-0.067783 0.28288-0.31254 0.28922-0.5546-0.22786-0.031187-0.46265-0.047499-0.70284-0.047499-0.51919 0-1.0139 0.076233-1.4634 0.21391-0.27266 0.12069-0.53094 0.24324-0.77604 0.37001h0.0088c-0.17639 0.089588-0.34246 0.17825-0.4989 0.26682-0.63067 0.48335-1.2454 1.1384-1.2454 1.8542z" fill="url(#d)" stroke-width=".084517"/>
<path d="m12.736 1.2107c0.017495-0.14824-0.026116-0.2789-0.11317-0.38362-0.095926-0.11317-0.20935-0.18272-0.34855-0.19151-0.5579-0.061105-1.185-0.061105-1.8733-0.017579-0.64512 0.043611-1.3246 0.13066-2.0478 0.26141-0.68848 0.12196-1.3857 0.28769-2.0827 0.47921-0.6971 0.19185-1.359 0.40965-1.9865 0.64469-0.65349 0.25296-1.2374 0.50549-1.7602 0.77569h0.0088c-0.56636 0.28744-1.0281 0.56643-1.3854 0.86258v-0.00879c-0.43569 0.33976-0.73183 0.67106-0.88887 0.98445v0.00879c-0.24383 0.44447-0.26141 0.85412-0.06085 1.2374 0.12196 0.37458 0.48978 0.54809 1.126 0.58283 0.36579 0.02603 0.86934 7.61e-4 1.4968-0.1212 0.50524-0.10438 1.1239-0.2702 1.8646-0.47921 0.54006-0.16548 1.2286-0.38328 2.0649-0.66227l2.074-0.67951c0.75786-0.25262 1.3765-0.44447 1.8558-0.57514 0.58384-0.17427 1.0456-0.27865 1.3941-0.33105 0.24417-0.034821 0.40966-0.043611 0.49679-0.026369v0.00879c0.19152 0.12187 0.29615 0.24417 0.30494 0.38337-0.06989 0.2178-0.2877 0.46197-0.63624 0.73217-0.41811 0.31339-0.99325 0.6359-1.6991 0.96695-0.68831 0.31373-1.455 0.60142-2.3003 0.88007h-0.0088c-0.65349 0.20909-1.3242 0.39216-2.0126 0.55764-0.67098 0.15703-1.2985 0.2702-1.8997 0.36612l0.0088-0.0088c-0.59238 0.08714-1.1068 0.13066-1.5509 0.13945h-0.0088c-0.38328 0-0.67977-0.02603-0.87129-0.095929-0.13075-0.05232-0.26141-0.04353-0.39216 0.01758-0.13945 0.05232-0.22659 0.15669-0.27891 0.28736-0.0524 0.13945-0.04361 0.2702 0.01758 0.40095 0.06077 0.13075 0.1567 0.22667 0.28744 0.27899 0.27891 0.10429 0.68831 0.15669 1.2547 0.15669 0.47921-0.0088 1.0371-0.05232 1.6818-0.14824h0.0088c0.6272-0.08714 1.2895-0.21772 1.9778-0.37458h0.0088c0.71468-0.17427 1.4117-0.36612 2.0913-0.58392 0.88887-0.27865 1.6991-0.59238 2.4221-0.92334 0.78423-0.36613 1.4205-0.72338 1.8998-1.0892 0.60996-0.47076 0.95842-0.91489 1.0193-1.342 0.15702-0.57487-0.095599-1.0629-0.76666-1.4897-0.20909-0.16582-0.60108-0.20935-1.1938-0.13066h-0.0084c-0.38371 0.060768-0.89774 0.17427-1.5336 0.357-0.48792 0.13945-1.1155 0.33122-1.8997 0.59271l-2.0737 0.67951c-0.82776 0.2702-1.4988 0.488-2.0301 0.64469-0.70589 0.20943-1.2897 0.36613-1.7778 0.46197-0.51403 0.10438-0.9149 0.1479-1.2198 0.13066-0.12196 0-0.2091-0.00879-0.24383-0.00879l-0.0088-0.00879c-0.02603-0.087136-0.01724-0.19151 0.04361-0.29615v-0.00879c0.11339-0.2003 0.31369-0.4181 0.60992-0.64469 0.32252-0.25262 0.72338-0.50524 1.2111-0.74941 0.488-0.26141 1.0371-0.49653 1.6471-0.73183v0.00879c0.60117-0.22659 1.2372-0.43568 1.8994-0.61866 0.67107-0.19185 1.333-0.34855 1.9953-0.46171 0.67098-0.13066 1.3158-0.20935 1.9257-0.24417 0.62746-0.052316 1.1938-0.043611 1.6903 0.00879 0.14816 0.01758 0.27012-0.026031 0.38328-0.11317 0.11342-0.095841 0.17427-0.20935 0.19177-0.34855z" fill="none" stroke="#333" stroke-linecap="round" stroke-linejoin="round" stroke-width=".1217"/>
<radialGradient id="c" cx="113.5" cy="35.63" r="47.61" gradientTransform="matrix(.084517 0 0 .084517 -1.8353 -.34956)" gradientUnits="userSpaceOnUse" xlink:href="#a">
<stop stop-color="#fff" offset=".04"/>
<stop stop-color="#6E93E1" offset=".23"/>
<stop stop-color="#6867cb" offset="1"/>
</radialGradient>
<ellipse cx="7.0311" cy="4.5655" rx="4.4438" ry="4.4438" fill="url(#c)" stroke="#33317a" stroke-linecap="round" stroke-linejoin="round" stroke-width=".24341"/>
<linearGradient id="b" x1="110.56" x2="106.98" y1="63.437" y2="51.73" gradientTransform="matrix(.084517 0 0 .084517 -1.8353 -.34956)" gradientUnits="userSpaceOnUse">
<stop offset="0"/>
<stop stop-color="#fff" offset=".9893"/>
</linearGradient>
<path d="m2.5694 5.3097c-0.05105 0.0098-1.3936 0.30333-1.6155 0.081474-0.06516-0.065163 0.14123 0.10108 0.35159 0.37475 0.02671 0.034736 0.0095 0.092461-0.02172 0.16354-0.0071 0.01631-0.01487 0.02138-0.02823 0.03896-0.0063 0.0084-0.0081 0.04201-0.0092 0.05054-0.0034 0.02721-0.01775 0.04885-0.02172 0.07285-0.01268 0.076149-0.05756 0.13692-0.06719 0.18551-0.0036 0.01834 0.02375 0.03499 0.02189 0.05003-0.0019 0.01614-0.03474 0.0202-0.03364 0.03305s-0.0371 0.01716-0.03381 0.02781c9.29e-4 3e-3 -0.0012 0.01352 0.0057 0.01513 0.02603 6e-3 0.08781 0.012 0.09643 0.01327 0.01327 0.0019 0.13286 0.01944 0.30443 0.02079 0.17157 0.0013 0.38252 0.0016 0.56728-0.01893 0.11308-0.01251 0.23098-0.02848 0.34187-0.04471 0.14571-0.02138 0.27916-0.04319 0.37323-0.05815 0.08748-0.01386 0.12661-0.0035 0.13895-0.0024 0.48166-0.10497 1.0598-0.26073 1.7414-0.45318 0.54006-0.16548 1.2287-0.38328 2.0649-0.66227l2.074-0.67951c0.41811-0.13945 0.79395-0.26023 1.1273-0.36249 0.27105-0.083164 0.51369-0.15399 0.72854-0.21273 0.26445-0.078685 0.50347-0.14309 0.71856-0.19515 0.26014-0.062965 0.48462-0.10742 0.67555-0.13582 0.24417-0.034821 0.40965-0.043611 0.49679-0.026369v0.00879c0.07353 0.046907 0.39427 0.00964 0.55638 0.25473 0.26116 0.39452 0.38912 1.1049 0.49552 0.95909 0.15217-0.20838 0.24387-0.41232 0.27227-0.61262 0.15703-0.57488-0.095589-1.0411-0.76657-1.468-0.2091-0.16582-0.60117-0.20943-1.1939-0.13066h-0.0084c-0.23242 0.036934-0.51276 0.093222-0.83934 0.1725-0.21205 0.051386-0.4438 0.09077-0.69439 0.16278-0.24197 0.069304-0.51851 0.15128-0.83139 0.24839-0.31762 0.09863-0.67284 0.21239-1.0683 0.34424l-2.0737 0.67951c-0.58663 0.19151-1.0943 0.35674-1.5297 0.49256z" fill="url(#b)" stroke-width=".084517"/>
<path d="m11.15 2.7096c-0.21214 0.051471-0.50753 0.13675-0.75812 0.20876-0.48792 0.13945-1.1155 0.33122-1.8997 0.59271l-2.0737 0.67951c-0.63109 0.20605-1.165 0.3728-1.6214 0.506-0.19802 0.05781-0.33722 0.088573-0.40839 0.10953-0.6889 0.20419-2.3756 0.69557-3.0307 0.62382" fill="none" stroke="#333" stroke-linecap="round" stroke-linejoin="round" stroke-width=".084517"/>
<path d="m2.8077 6.3253c0.48166-0.10497 1.1954-0.28685 1.877-0.47921 0.54006-0.16548 1.2286-0.38328 2.0649-0.66227l2.074-0.67951c0.75786-0.25262 1.3765-0.44447 1.8558-0.57514 0.26445-0.078685 0.56905-0.15407 0.78415-0.20614" fill="none" stroke="#333" stroke-linecap="round" stroke-linejoin="round" stroke-width=".084517"/>
</svg>
