<?xml version="1.0" encoding="UTF-8"?>
<svg version="1.1" viewBox="0 0 16 14.095" xmlns="http://www.w3.org/2000/svg">
<rect width="16" height="14.095" fill-rule="evenodd"/>
<path d="m5.7034 11.381 2.6321-2.606c0.00831-0.0196 0.016249-0.039008 0.024211-0.058424l-2.6563 2.0075 2.7033-2.8133-2.7033 2.0651 2.591-2.7373-2.591 2.1123 2.4943-2.8105c-0.9045-0.75358-3.0318-0.085732-4.8826 1.5681-1.9351 1.7292-2.8343 3.8803-2.0084 4.8046 0.82591 0.92429 3.0643 0.27187 4.9994-1.4573 0.52452-0.46869 0.97209-0.9683 1.3306-1.4661z" fill="#609ad2" stroke-width=".063225"/>
<path d="m4.5241 9.1255-0.90861-0.01043v2.2815h0.90861v-0.6272h0.88142v1.3866h-2.2238c-0.22205 0-0.42987-0.21933-0.42987-0.42987v-2.9249c0-0.31442 0.14984-0.43505 0.42285-0.43505h2.2308v1.513h-0.88142z" fill="#080808" stroke-width=".063225"/>
<path d="m10.297 5.6634-2.6321 2.606c-0.00831 0.0196-0.016249 0.039008-0.02422 0.058424l2.6563-2.0075-2.7033 2.8132 2.7033-2.0651-2.591 2.7373 2.591-2.1123-2.4943 2.8105c0.9045 0.75358 3.0318 0.085732 4.8826-1.5681 1.9351-1.7292 2.8343-3.8803 2.0084-4.8046-0.82591-0.92429-3.0643-0.27187-4.9994 1.4573-0.52452 0.46869-0.97209 0.9683-1.3306 1.4661z" fill="#e4bb4e" stroke-width=".063225"/>
<g transform="matrix(.063225 0 0 .063225 -3.786 3.2915)">
<path d="m270.4 78.898c0 3.399-3.528 6.739-6.798 6.798l-35.202-0.059v-59.94l35.202-2e-3c3.399 0.387 6.798 3.27 6.798 6.882zm-28-5.271h14.342v-36.085l-14.342 0.165z"/>
</g>
<g transform="matrix(.063225 0 0 .063225 1.1879 .44935)" fill="#fff">
<path d="m27.502 12.139c1.136-1.689 2.825-3.401 5.024-3.328 4.164-0.114 8.328 0 12.501-0.032-0.032 1.396-0.065 2.792-0.114 4.188 1.697-1.875 3.523-4.253 6.332-4.155 5.763-0.105 11.527 0 17.289-0.032 0 11.267 0.01 22.542 0 33.816-3.896 9e-3 -7.8 0-11.695 0-0.018-8.061 8e-3 -16.121-0.018-24.182-2.191-0.194-3.238 1.892-4.229 3.458-4.238 6.916-8.719 13.694-12.744 20.732-4.1 0.081-8.191 0.072-12.29-9e-3 4.92-8.296 10.196-16.373 15.245-24.595-2.581 0.153-5.901-0.707-7.816 1.525-4.87 7.646-9.579 15.406-14.408 23.078-4.124-0.017-8.24 8e-3 -12.363-0.017 6.42-10.153 12.873-20.285 19.286-30.447z"/>
<path d="m73.536 12.898c1.559-2.004 4.684-4.447 7.728-4.139 8.637-0.023 17.281-0.023 25.919 0.01 8e-3 2.508 0.016 5.008-0.058 7.516-6.437 0.195-12.89-0.09-19.319 0.139-2.362 0.893-2.873 3.896-4.391 5.713 8.068 0.049 16.129-0.023 24.197 0.033-1.599 2.176-3.109 4.416-4.627 6.648-6.559 0.049-13.117-0.072-19.669 0.064 0.033 2.119 0.042 4.238 0.05 6.365 7.945 0.016 15.886-0.033 23.832 0.023-0.016 2.459-0.023 4.92 0.024 7.371-12.006 0.064-24.011 0.023-36.017 0.023-0.017-6.891-0.024-13.783-8e-3 -20.684-0.275-3.388 0.682-6.46 2.339-9.082z"/>
<path d="m112.58 11.898c1.039-1.479 3.978-3.268 6.063-3.139 9.278-0.039 18.557 0 27.827-8e-3 0.016 2.533-0.025 5.064-0.122 7.59-6.031 0.041-12.054-0.057-18.077 0.041-4.124-0.229-5.788 4.326-7.047 7.451-0.163 5.069-1.011 5.144-0.312 11.398 6.813 0.432 8.407 0.257 16.87 0.129 0.433-1.777 0.172-3.645 0.261-5.463-2.921-0.475-2.289-0.276-7.954-0.439 1.412-2.41 2.768-4.861 4.115-7.313 4.83 0.023 9.659-0.041 14.489 0.047-0.017 5.619 0.032 11.234 0 16.854 0.04 1.178-0.479 2.266-0.836 3.369-11.089 0.461-22.201 0.096-33.298 0.193-2.905 0.479-4.862-2.631-4.603-5.219 0.081-6.145-0.138-12.307 0.098-18.443-0.119-2.881 1.082-4.774 2.526-7.048z"/>
<path d="m151.86 8.785c6.251-0.082 12.509-0.016 18.76-0.049 3.352-0.334 5.778 2.525 7.418 5.064 5.911 9.668 12.096 19.174 17.932 28.881-4.261-0.016-8.522 8e-3 -12.784-0.016-1.64-2.158-2.866-4.789-5.098-6.379-3.775-0.148-7.55-0.01-11.315-0.041-1.161-1.777-2.298-3.564-3.329-5.414 0.105 3.928 0.065 7.857 0.065 11.785-3.889 0-7.769 0.041-11.648-0.031-9e-3 -11.267-9e-3 -22.534-1e-3 -33.8zm11.884 7.297c-0.065 4.238 0.016 8.475-0.065 12.713 3.427 0.072 6.843 8e-3 10.262 0.096-2.201-3.418-4.02-7.07-6.252-10.471-0.909-1.348-2.435-1.957-3.945-2.338z" fill="#fff"/>
</g>
</svg>
