<?xml version="1.0" encoding="UTF-8"?>
<svg version="1.1" viewBox="0 0 14 10.041" xmlns="http://www.w3.org/2000/svg">
<g clip-path="url(#a)" stroke-width="1.0128">
<path d="m0 5.9382 0.003636-0.072747 0.01082-0.071815 0.01772-0.070873 0.024529-0.06902 0.031152-0.06902 0.037679-0.067157 0.043835-0.065283 0.049991-0.06435 0.055866-0.062487 0.061648-0.060623 0.067245-0.059692 0.072561-0.056887 0.077877-0.055966 0.08282-0.05316 0.087764-0.051297 0.092428-0.049433 0.096902-0.046628 0.10129-0.044774 0.10548-0.041969 0.10941-0.039164 0.11331-0.036378 0.11687-0.034504 0.1204-0.030778 0.12359-0.028914 0.12684-0.025188 0.12964-0.022382 0.13253-0.018655 0.13504-0.01585 0.13748-0.012123 0.13971-0.00933 0.14177-0.0056 0.14363-0.00186c1.5444 0 2.7936 0.63328 2.7936 1.4139 0 0.78344-1.2496 1.4139-2.7936 1.4139-1.5418 6e-7 -2.7915-0.63047-2.7915-1.4139z" fill="#5f9933"/>
<path d="m5.161 8.556 0.00383-0.076383 0.011372-0.075451 0.018655-0.074337 0.025745-0.073122 0.032732-0.071815 0.039549-0.070509 0.046162-0.06902 0.052512-0.06743 0.05876-0.066215 0.064817-0.06342 0.07061-0.062497 0.076292-0.060613 0.08179-0.057829 0.087107-0.055965 0.092243-0.054092 0.097094-0.051297 0.10184-0.049433 0.10651-0.046628 0.1108-0.043833 0.115-0.041979 0.1191-0.038232 0.12283-0.036378 0.12647-0.032641 0.12992-0.029846 0.13337-0.02611 0.13617-0.023324 0.13897-0.020519 0.1427-0.01585 0.14456-0.013053 0.14642-0.010259 0.14923-0.0056 0.15109-0.00186c1.62 0 2.9361 0.66498 2.9361 1.4855 0 0.81971-1.316 1.4853-2.9361 1.4853-1.6209 0-2.9343-0.66525-2.9343-1.4853z" fill="#c1bc0b"/>
<path d="m6.3644 5.3003 0.13169-0.0084 0.12992-0.014918 0.12787-0.020519 0.12582-0.027051 0.12339-0.032642 0.12124-0.038241 0.11845-0.044764 0.11565-0.049433 0.11285-0.055034 0.11006-0.059681 0.10632-0.065293 0.10352-0.06901 0.099798-0.074621 0.096061-0.079269 0.092333-0.083005 0.087674-0.086743 0.084869-0.091401 0.079279-0.096061 0.075543-0.098866 0.070884-0.10259 0.066225-0.10539 0.060623-0.10912 0.055955-0.11284 0.050365-0.11473 0.045697-0.11844 0.040105-0.12032 0.033582-0.12311 0.028904-0.12591 0.022392-0.12778 0.01585-0.12963 0.00933-0.13151 0.00373-0.13244c-6.2e-6 -1.4633-1.1882-2.6515-2.6516-2.6515-1.4536 0-2.6344 1.1677-2.6516 2.6189 0.034232-0.00186 0.068463-0.00186 0.1053-0.00186 1.4631 0 2.6516 1.1854 2.6516 2.6516v0.03171" fill="#1489b8"/>
<path d="m11.523 7.9201 0.12862-0.00839 0.12599-0.013996 0.12498-0.020519 0.12214-0.026109 0.12032-0.032641 0.11748-0.03731 0.11566-0.04291 0.11292-0.048491 0.10999-0.05316 0.10634-0.05876 0.10452-0.063418 0.09976-0.067157 0.09702-0.072747 0.09328-0.076474 0.09044-0.081142 0.08578-0.084869 0.08112-0.089538 0.07839-0.092333 0.07272-0.096993 0.06907-0.099798 0.06431-0.10259 0.05874-0.10633 0.05509-0.11005 0.04942-0.11192 0.04385-0.11472 0.03818-0.11752 0.03362-0.12031 0.02704-0.12218 0.02238-0.12404 0.01489-0.12685 0.0094-0.12777 0.003746-0.12964c0-1.426-1.1537-2.5825-2.5807-2.5825-1.4139 0-2.5629 1.1388-2.5797 2.5508 0.033573-0.00186 0.068078-0.00186 0.10259-0.00186 1.4232 0 2.5807 1.1565 2.5807 2.5825z" fill="#bd0f14"/>
</g>
<defs>
<clipPath id="a">
<rect width="13.971" height="10" fill="#fff"/>
</clipPath>
</defs>
</svg>
