<?xml version="1.0" encoding="UTF-8"?>
<svg version="1.1" viewBox="0 0 16 8.723" xmlns="http://www.w3.org/2000/svg">
<rect width="16" height="8.723" fill-rule="evenodd" stroke-width=".97835"/>
<g transform="translate(-34.082 -298.93)" stroke-opacity="0">
<path d="m39.138 299.96v6.5785h-4.0394z" fill="#c00"/>
<rect x="43.416" y="300.1" width="1.9513" height="6.5035" fill="#0c0"/>
<path d="m45.788 300.1c-0.02087-6.7e-4 -0.04411-1e-3 -0.07027-2e-3l-0.01199 2.228c0.0016 5e-5 0.0032-5e-5 0.0047 0v-7e-3c0.03319-4e-3 0.06661-8e-3 0.1007-8e-3l0.40967-2.1835c-0.15986-0.0212-0.3104-0.0235-0.43286-0.0278zm0.75131 0.0618-0.57522 2.1592c0.05123 8e-3 0.10145 0.02 0.14974 0.0363l0.94482-2.053c-0.16688-0.0641-0.34025-0.11242-0.51934-0.1426zm0.83516 0.28752-1.1299 1.9641c0.03776 0.02 0.07436 0.043 0.10914 0.0681l1.4515-1.7487c-0.13539-0.1075-0.27941-0.20228-0.43076-0.28347zm0.70229 0.52768-1.6239 1.5871c0.03881 0.0369 0.07516 0.0774 0.10808 0.12066l1.9107-1.2182c-0.11632-0.17758-0.24894-0.34165-0.39491-0.48958zm0.54306 0.73957-1.9882 1.0732c0.0228 0.039 0.04316 0.0795 0.06116 0.12182l2.1828-0.57502c-0.0656-0.21794-0.15161-0.4255-0.25571-0.62005zm0.33744 0.95028-2.2244 0.35621c0.02281 0.0752 0.03814 0.15439 0.04481 0.23613h2.245c-0.0053-0.20265-0.02769-0.4007-0.06537-0.59234zm-2.1796 0.78748c-0.04609 0.52854-0.45074 0.94164-0.94271 0.94164-0.04232 0-0.08358-3e-3 -0.12443-9e-3v-0.045c-0.0016 5e-5 -0.0032-5e-5 -0.0047 0v2.2496c0.16847-1e-3 0.2554-9e-3 0.38647-9e-3 1.5886 0 2.8821-1.3912 2.9304-3.128z" fill="#0c0"/>
<path d="m42.518 299.96v6.5785h-4.0394z" fill="#c00"/>
</g>
</svg>
