<?xml version="1.0" encoding="UTF-8"?>
<svg version="1.1" viewBox="0 0 16 16" xmlns="http://www.w3.org/2000/svg">
<rect x="10.461" y="6.9595" width="3.2116" height="3.4805" fill="#cc0010" stroke-width="1.1389"/>
<rect x="2.1001" y="2.0908" width="4.5209" height="11.784" ry="0" fill="#cc0010" stroke-width="1.1784"/>
<path d="m4.2466 3.9016c-0.18266 0.034778-0.46099 0.17391-0.60885 0.30436-0.30442 0.26378-0.45518 0.63771-0.43199 1.0783 0.011595 0.22899 0.026094 0.28986 0.11887 0.47538 0.13627 0.28117 0.34212 0.48698 0.62335 0.62612 0.19424 0.095657 0.24353 0.10725 0.49577 0.11595 0.22904 0.0087 0.31022 0 0.46388-0.052179 0.62915-0.2116 1.0089-0.82322 0.90167-1.4493-0.12467-0.74496-0.83209-1.2435-1.5627-1.0986z" fill="#818990" stroke-width="1.1389"/>
<path d="m9.1927 1.0203c-0.011606 0.0087-0.020297 3.1509-0.020297 6.9829 0 6.322 0.00289 6.9626 0.046391 6.9801 0.078272 0.02892 2.3281 0.01731 2.6065-0.01162 1.177-0.13335 2.215-0.84929 2.7804-1.9131 0.07244-0.13631 0.16812-0.36532 0.21743-0.50732 0.18258-0.5449 0.17689-0.40005 0.17689-4.5654 0-3.3248-0.0058-3.8205-0.04647-4.0321-0.28703-1.5102-1.438-2.6494-2.9514-2.9103-0.20297-0.034784-0.51608-0.04348-1.5251-0.04348-0.69582 0-1.2757 0.0087-1.2844 0.02029zm3.0965 6.3133c0.45218 0.11885 0.82338 0.4638 0.97407 0.90438 0.09567 0.27248 0.09283 0.6725-0.0028 0.92179-0.17689 0.45799-0.52474 0.77975-0.97122 0.89859-0.72486 0.18842-1.4961-0.24929-1.7077-0.96816-0.06378-0.22031-0.06089-0.59133 0.01159-0.81743 0.21745-0.71018 0.97127-1.1276 1.6961-0.93917z" fill="#818990" stroke-width="1.1389"/>
<path d="m3.9972 1.0456c-1.3946 0.24928-2.5166 1.2812-2.8703 2.6378-0.12757 0.48987-0.13626 0.77684-0.12177 4.577 0.0087 3.4901 0.011597 3.5711 0.069582 3.8408 0.32182 1.4522 1.354 2.4871 2.821 2.829 0.19135 0.0435 0.43489 0.05216 2.0034 0.06093 1.6236 0.01162 1.7917 0.0087 1.8352-0.03484 0.043487-0.0435 0.046391-0.60286 0.046391-6.9452 0-4.7016-0.0087-6.9162-0.028999-6.9568-0.028987-0.052182-0.078283-0.055081-1.7772-0.052182-1.3801 0.0028984-1.7946 0.011595-1.9773 0.04348zm2.6238 6.9568v5.8728l-1.18-0.014577c-1.0872-0.011501-1.2032-0.017309-1.4206-0.072425-0.93355-0.24062-1.6265-0.95941-1.8207-1.8957-0.063784-0.29278-0.063784-7.5047-0.0029045-7.7917 0.17396-0.81454 0.73931-1.4899 1.5018-1.7943 0.3827-0.15363 0.55955-0.17102 1.8004-0.17392l1.122-0.00289z" fill="#818990" stroke-width="1.1389"/>
</svg>
