<?xml version="1.0" encoding="UTF-8"?>
<svg version="1.1" viewBox="0 0 16 16" xmlns="http://www.w3.org/2000/svg">
<path d="m4 15.55c0-0.24863 1.7905-0.45013 3.9999-0.45013 2.2095 0 4.0001 0.2015 4.0001 0.45013 0 0.2487-1.7905 0.45013-4.0001 0.45013-2.2096 0-3.9999-0.20143-3.9999-0.45013z" fill="#888" stroke-width=".089699"/>
<radialGradient id="a" cx="109.2" cy="155.13" r="36.658" gradientTransform="matrix(.112 0 0 .071837 -3.7603 -.26874)" gradientUnits="userSpaceOnUse">
<stop stop-color="#e5ca00" offset=".5225"/>
<stop stop-color="#716A13" offset=".8933"/>
<stop stop-color="#49482E" offset="1"/>
</radialGradient>
<path d="m4.5999 11.306c0-1.2077 1.5218-2.1863 3.4001-2.1863 1.8782 0 3.3999 0.97856 3.3999 2.1863 0 1.2076-1.5219 2.1863-3.3999 2.1863-1.8783 0-3.4001-0.97863-3.4001-2.1863z" fill="url(#a)" stroke-width=".089699"/>
<path d="m4.8333 5.6049c-0.50043 0.214-0.6336 1.4573-0.6336 1.4573s0.13316 1.2434 0.6336 1.4574c0.49976 0.21443 3.1666 0.34302 3.1666 0.34302s2.667-0.12859 3.1665-0.34302c0.50054-0.214 0.63371-1.4574 0.63371-1.4574s-0.13316-1.2434-0.63371-1.4573c-0.49953-0.21458-3.1665-0.34316-3.1665-0.34316s-2.6669 0.12859-3.1666 0.34316z" fill="#77f" stroke-width=".089699"/>
<polygon transform="matrix(.112 0 0 .071837 -3.7603 -.26874)" points="69.44 39.392 105 3.741 140.56 39.392 105 75.035" fill="#c00"/>
</svg>
