<?xml version="1.0" encoding="UTF-8"?>
<svg version="1.1" viewBox="0 0 4.2333 4.2333" xmlns="http://www.w3.org/2000/svg">
<g>
<rect x=".26458" y=".26458" width="3.7042" height="3.7042" ry=".35811" fill="#bfbfbf" fill-rule="evenodd" stroke-width=".23388"/>
<rect x=".52917" y=".52917" width="3.175" height="3.175" ry=".39071" fill="#303030" fill-rule="evenodd" stroke-width=".22911"/>
<path d="m0.66146 0.52917 0.60934 1.5875h0.22356l0.63914-1.5875h-0.342l-0.40066 1.1674c-0.16953-0.48461-0.28787-0.8093-0.41839-1.1674z" fill="#bfbfbf"/>
<path d="m2.0941 0.52917v1.5816h0.24799v-1.1975l0.80151 1.1975h0.22562v-1.5816h-0.22562v1.1631l-0.80151-1.1631z" fill="#bfbfbf"/>
<path d="m1.8033 2.1167h-0.99254v1.5875h0.99254v-0.19293h0.23692v-1.1833h-0.23692zm-0.7333 0.21125h0.4937v1.1833h-0.4937z" fill="#bfbfbf"/>
<path d="m3.3771 2.3279v0.29816h-0.45947v-0.29816h-0.42166v0.47773h0.88112v0.70559h-0.24306v0.19293h-0.83534v-0.19293h-0.25846v-0.34707l0.45573-0.00628v0.35335h0.63806v-0.34707h-0.2164v-0.1781l-0.61893 0.012553v-0.19297h-0.25846v-0.47773h0.25846v-0.21125h0.83534v0.21125z" fill="#bfbfbf"/>
</g>
</svg>
