<?xml version="1.0" encoding="UTF-8"?>
<svg version="1.1" viewBox="0 0 14 14" xmlns="http://www.w3.org/2000/svg">
<path d="m0.66012 7.167c0.31388 0.27982 0.62754 0.54437 0.94177 0.79343 0.41471-0.62982 0.86657-1.2073 1.3577-1.7293-0.09274-0.17466-0.14515-0.37416-0.14515-0.5855 0-0.10436 0.01265-0.20565 0.03691-0.30283-0.51315-0.33246-1.0412-0.7032-1.5911-1.1163-0.40662 0.83854-0.63426 1.7793-0.63426 2.7732h0.001367v3.4e-4h-0.001481c0 0.06745 0.001367 0.13467 0.003418 0.20155l0.030762-0.03464zm0.90371-3.4949c0.55041 0.41517 1.0771 0.78727 1.588 1.1201 0.22787-0.24313 0.55212-0.395 0.91135-0.395 0.28494 0 0.54744 0.09559 0.75765 0.25634 0.15039-0.09969 0.30385-0.19585 0.45994-0.28756 0.65033-0.38236 1.3482-0.69419 2.0975-0.93162-0.00547-0.04968-0.00798-0.10004-0.00798-0.15062 0-0.19073 0.03817-0.37256 0.10767-0.53788-0.76119-0.64497-1.6626-1.2161-2.7002-1.7207-0.86577 0.32243-1.6424 0.82761-2.2837 1.4688-0.3541 0.35376-0.66673 0.74933-0.93026 1.1782zm4.0877-2.9028c0.82054 0.4416 1.5526 0.92854 2.1933 1.466 0.21419-0.18776 0.48649-0.31126 0.78613-0.33974 0.06722-0.32915 0.13068-0.66377 0.19095-1.0048-0.57741-0.17215-1.1888-0.26512-1.8217-0.26512v0.001367h-5.7e-4v-0.001367c-0.46257 0-0.9134 0.049902-1.3482 0.14367zm3.7684 0.33336c-0.05298 0.29611-0.10846 0.58778-0.16657 0.87477 0.41779 0.15677 0.74045 0.50814 0.85745 0.94382 0.5656-0.04159 1.1538-0.04968 1.7664-0.02279-0.118-0.14002-0.2415-0.27537-0.3709-0.40491-0.5923-0.59188-1.2999-1.0677-2.0864-1.3909zm2.9423 2.4524c-0.7828-0.05867-1.5252-0.06015-2.2287-0.00717-0.0577 0.301-0.21239 0.56761-0.42989 0.76608 0.18503 0.28517 0.35269 0.58071 0.50259 0.88696 0.2183 0.44673 0.398 0.9159 0.5399 1.4075 0.0432-0.00444 0.087-0.00695 0.1317-0.00695 0.5604 0 1.0347 0.36914 1.1926 0.87819 0.4132 0.01447 0.8403 0.0221 1.2837 0.02484 0.0131-0.16669 0.0202-0.33474 0.0202-0.50438h-0.0014v-5.7e-4h0.0014c-4e-4 -1.2686-0.3719-2.4509-1.0121-3.4445zm0.9118 4.5734c-0.4039-0.00285-0.7945-0.00991-1.1738-0.02244-0.1013 0.48649-0.4861 0.86941-0.9738 0.96808 0.0214 0.58299 0.0014 1.1926-0.0618 1.829 0.3577-0.0377 0.7203-0.0897 1.0894-0.155 0.5563-0.76307 0.9471-1.6537 1.12-2.6196zm-0.7601 3.1832 0.0013 0.0064-0.0075 0.0014c-0.1733 0.2212-0.3596 0.4315-0.5583 0.6302-1.2656 1.2656-3.0156 2.0487-4.9489 2.0489v0.0014h-5.7e-4v-0.0014c-1.9333 0-3.6832-0.7833-4.9494-2.0493-1.2658-1.2659-2.049-3.0159-2.0492-4.9492h-0.0012533v-3.4e-4h0.0012533c0-1.9335 0.7834-3.6834 2.0494-4.9494 1.266-1.266 3.0156-2.0491 4.949-2.0491v-0.0012533h5.7e-4v0.0012533c1.9335 0 3.6835 0.78317 4.9494 2.0494 1.266 1.2657 2.049 3.0156 2.049 4.949h0.0014v5.7e-4h-0.0014c0 1.6268-0.5546 3.1235-1.4847 4.3115zm-0.9795 0.1653c-0.1832 0.0244-0.3648 0.0454-0.5452 0.0629-0.0224 0.1612-0.0477 0.324-0.0752 0.4887 0.2081-0.162 0.406-0.3363 0.5923-0.5226l0.0281-0.029zm-1.3466 1.0421c0.0638-0.3173 0.1181-0.6279 0.1628-0.932-1.1417 0.0594-2.2328-0.023-3.2887-0.2459-0.20645 0.2448-0.51509 0.401-0.86031 0.401-0.02563 0-0.05093-1e-3 -0.07576-0.0025-0.19927 0.5082-0.39216 1.0027-0.56898 1.4697 0.4637 0.1075 0.94701 0.1647 1.443 0.1647v-0.0014h5.7e-4v0.0014c1.1609 0 2.2496-0.3114 3.1875-0.855zm-5.2337 0.5189c0.19357-0.5146 0.3868-1.0113 0.5831-1.5128-0.24723-0.1811-0.41779-0.4609-0.45367-0.7815-1.1326-0.4488-2.2307-1.0714-3.3164-1.8689-0.17408 0.29326-0.34077 0.59723-0.5005 0.91202 0.31206 0.64022 0.72882 1.221 1.2273 1.7195 0.68462 0.6843 1.5236 1.214 2.4601 1.5317zm-3.9964-4.0045c0.10048-0.18343 0.2036-0.36321 0.30922-0.53947-0.18571-0.14617-0.37131-0.29759-0.55656-0.4539 0.056169 0.34077 0.13934 0.67311 0.24735 0.99337zm4.2501-3.8868c0.06687 0.1529 0.10413 0.32163 0.10413 0.49914 0 0.1194-0.01698 0.23504-0.04831 0.34442 0.68599 0.32812 1.3602 0.58857 2.0436 0.79422 0.24837-0.74364 0.48706-1.5159 0.70934-2.3238-0.17466-0.1112-0.32277-0.26-0.43306-0.43511-0.71151 0.22376-1.3724 0.51805-1.9869 0.87922-0.13148 0.07724-0.26148 0.15813-0.38885 0.24187zm-0.26433 1.3845c-0.2257 0.22479-0.53685 0.36356-0.88047 0.36356-0.25088 0-0.48466-0.07417-0.68063-0.20132-0.4637 0.49663-0.89049 1.0472-1.2836 1.6478 1.018 0.75241 2.0434 1.3433 3.0957 1.7734 0.18479-0.36872 0.56635-0.62199 1.0068-0.62199 0.04239 0 0.08397 0.00239 0.12533 0.00706 0.2617-0.68382 0.52397-1.3888 0.7785-2.1224-0.72381-0.21875-1.4369-0.49617-2.1616-0.84606zm4.2129-1.9087c-0.1243 0.03612-0.25578 0.05549-0.39193 0.05549-0.05264 0-0.10482-0.00262-0.15597-0.00855-0.2191 0.7932-0.45323 1.5518-0.69681 2.2821 0.59814 0.15118 1.2084 0.26432 1.8451 0.3476 0.09263-0.18787 0.23094-0.34886 0.40078-0.46871-0.1338-0.47487-0.30565-0.92627-0.51494-1.3547-0.14424-0.29497-0.30648-0.579-0.48626-0.85324zm1.342 4.4177c-0.485-0.15438-0.8415-0.59701-0.86782-1.1267-0.66172-0.08807-1.2972-0.20747-1.9209-0.3672-0.26307 0.75901-0.53411 1.488-0.80459 2.194 0.25658 0.20622 0.42087 0.5227 0.42087 0.8772 0 0.0467-0.00308 0.0926-0.00854 0.1379 0.99759 0.1984 2.0304 0.2654 3.113 0.2002 0.0713-0.6707 0.0935-1.3088 0.068-1.9154z" fill="#5f57ff"/>
</svg>
