<?xml version="1.0" encoding="UTF-8"?>
<svg version="1.1" viewBox="0 0 16 7.6535" xmlns="http://www.w3.org/2000/svg">
<g transform="scale(1.1429)" clip-path="url(#a)" fill="#b1b1b4">
<path d="m7.649 0.36694-1.1821 4.6345s-0.9038-3.4788-1.0508-3.9722c-0.1471-0.49423-0.44968-0.71078-0.87887-0.71078-0.4293 0-0.73245 0.21652-0.87946 0.71078-0.14642 0.49342-1.0505 3.9722-1.0505 3.9722l-1.1829-4.6345h-1.4243s1.368 4.9447 1.5539 5.5175c0.14465 0.44695 0.4873 0.81236 0.99523 0.81236 0.58078 0 0.85234-0.42339 0.97813-0.81236 0.12442-0.38674 1.0099-3.6526 1.0099-3.6526s0.88547 3.2659 1.0096 3.6526c0.12564 0.38897 0.39728 0.81236 0.97786 0.81236 0.50836 0 0.85038-0.36539 0.99593-0.81236 0.18553-0.57267 1.5526-5.5175 1.5526-5.5175zm4.8836 6.2821h1.3484v-4.3616h-1.3484zm-0.1307-5.8866c0 0.42038 0.3547 0.76161 0.7901 0.76161 0.4531 0 0.808-0.3342 0.808-0.76161 0-0.42754-0.3549-0.76248-0.808-0.76248-0.4354 0-0.7901 0.3417-0.7901 0.76248zm-2.6092 5.8866h1.348v-4.3616h-1.348zm-0.13108-5.8866c0 0.42038 0.35393 0.76161 0.78963 0.76161 0.4529 0 0.8085-0.3342 0.8085-0.76161 0-0.42754-0.3556-0.76248-0.8085-0.76248-0.4357 0-0.78963 0.3417-0.78963 0.76248z" fill="#b1b1b4"/>
</g>
<defs>
<clipPath id="a">
<rect width="14" height="6.6968" fill="#fff"/>
</clipPath>
</defs>
</svg>
