<?xml version="1.0" encoding="UTF-8"?>
<svg version="1.1" viewBox="0 0 16 14.362" xmlns="http://www.w3.org/2000/svg">
<path d="m1.9187 6.2968c1.8977-0.87077 3.8753-0.72942 5.9195 0.25657l1.5944-5.6446c-1.9044-0.95156-3.8574-1.3693-5.9562-0.18327z" fill="#cc3000" stroke-width=".07257"/>
<path d="m9.9331 1.048c2.6941 1.2294 4.6159 0.79489 6.0669 0.39874l-1.5541 5.4108c-2.8055 1.3647-4.4822 0.48861-6.1256-0.12829z" fill="#90c200" stroke-width=".07257"/>
<path d="m8.192 7.2424c1.8033 0.76008 3.7011 1.2368 6.0845 0.25657l-1.9243 6.1578c-2.273 1.1393-4.0053 0.75664-5.9379-0.14661z" fill="#cc9f00" stroke-width=".07257"/>
<path d="m0 13.107c1.9208-1.001 3.9011-0.78055 5.9195 0.21992l1.7777-6.2861c-0.81906-0.37418-2.7013-1.4018-5.9745-0.073307z" fill="#028bca" stroke-width=".07257"/>
</svg>
