<?xml version="1.0" encoding="UTF-8"?>
<svg version="1.1" viewBox="0 0 14 11.872" xmlns="http://www.w3.org/2000/svg" xmlns:xlink="http://www.w3.org/1999/xlink">
<defs>
<clipPath id="k">
<path d="m481.12 609.93h144.4v-254.9h-144.4z"/>
</clipPath>
<clipPath id="l">
<path d="m242.8 695.39h336.52v-142.36h-336.52z"/>
</clipPath>
<radialGradient id="b" cx="0" cy="0" r="1" gradientTransform="matrix(207.43 -21.51 -19.788 -190.88 415.48 501.29)" gradientUnits="userSpaceOnUse">
<stop stop-color="#fff" offset="0"/>
<stop offset=".95506"/>
<stop offset="1"/>
</radialGradient>
<radialGradient id="a" cx="0" cy="0" r="1" gradientTransform="matrix(-59.414 -151.8 -183.86 71.965 430.59 518.58)" gradientUnits="userSpaceOnUse">
<stop stop-color="#fff" offset="0"/>
<stop offset=".95506"/>
<stop offset="1"/>
</radialGradient>
<linearGradient id="j" x2="1" gradientTransform="matrix(112.95 139.49 139.49 -112.95 242.33 465.08)" gradientUnits="userSpaceOnUse">
<stop stop-color="#ff0" offset="0"/>
<stop stop-color="#9dff00" offset=".5"/>
<stop stop-color="#458c41" offset="1"/>
</linearGradient>
<linearGradient id="i" x2="1" gradientTransform="matrix(138.34 -205.1 -205.1 -138.34 228.25 725.86)" gradientUnits="userSpaceOnUse">
<stop stop-color="#4a7d62" offset="0"/>
<stop offset="1"/>
</linearGradient>
<linearGradient id="h" x2="1" gradientTransform="matrix(221.12 149.15 149.15 -221.12 150.16 295.6)" gradientUnits="userSpaceOnUse">
<stop stop-color="#ff0" offset="0"/>
<stop stop-color="#9dff00" offset=".42134"/>
<stop stop-color="#5c5c5c" offset="1"/>
</linearGradient>
<linearGradient id="g" x2="1" gradientTransform="matrix(179.04 310.1 310.1 -179.04 150.04 206.61)" gradientUnits="userSpaceOnUse">
<stop stop-color="#4a7d62" offset="0"/>
<stop stop-color="#182920" offset="1"/>
</linearGradient>
<linearGradient id="f" x2="1" gradientTransform="matrix(-123.56 119.32 119.32 123.56 588.99 485.63)" gradientUnits="userSpaceOnUse">
<stop stop-color="#ff0" offset="0"/>
<stop stop-color="#9dff00" offset=".47752"/>
<stop stop-color="#4a4a4a" offset="1"/>
</linearGradient>
<linearGradient id="e" x2="1" gradientTransform="matrix(19.705 160.48 160.48 -19.705 528.97 540.92)" gradientUnits="userSpaceOnUse">
<stop offset="0"/>
<stop stop-color="#45755c" offset=".87079"/>
<stop stop-color="#45755c" offset="1"/>
</linearGradient>
<linearGradient id="d" x2="1" gradientTransform="matrix(57.405 123.11 123.11 -57.405 544.35 308.62)" gradientUnits="userSpaceOnUse">
<stop stop-color="#ff0" offset="0"/>
<stop stop-color="#aeff00" offset=".41573"/>
<stop stop-color="#575757" offset="1"/>
</linearGradient>
<linearGradient id="c" x2="1" gradientTransform="matrix(-55.596 315.3 315.3 55.596 625.09 206.59)" gradientUnits="userSpaceOnUse">
<stop stop-color="#4a7d62" offset="0"/>
<stop offset=".83147"/>
<stop offset="1"/>
</linearGradient>
</defs>
<g transform="translate(-27.625 -31.769)">
<path d="m27.625 43.641h14v-11.872h-14z"/>
<g transform="matrix(.017523 0 0 .017523 27.141 31.212)">
<g transform="matrix(1.25 0 0 -1.25 -97.211 943.55)">
<g clip-path="url(#l)">
<path d="m417.09 553.03-174.29 83.727s175.19 135.82 336.52-5.986z" fill="url(#b)"/>
</g>
<g clip-path="url(#k)">
<path d="m481.12 501.93 114.42 108s101.09-174.09-67.989-254.9z" fill="url(#a)"/>
</g>
<path d="m344.64 507.72v-125.5c24.426 20.367 48.894 41.889 72.242 64.093v108.36s-131.23 43.744-214.07 95.919c34.127-38.852 90.552-100.24 141.83-142.88" fill="url(#j)"/>
<path d="m202.81 650.6c82.848-52.175 214.07-95.919 214.07-95.919v14.449s-170.67 56.89-245.62 118.3c0 0 12.187-14.789 31.546-36.825" fill="url(#i)"/>
<path d="m176.8 256.1c42.305 28.866 104.91 73.64 167.84 126.12v102.02s-85.697-130.06-167.84-228.14" fill="url(#h)"/>
<path d="m124.31 221.47s20.413 12.745 52.494 34.636c82.143 98.077 167.84 228.14 167.84 228.14v23.477s-127.32-193.24-220.33-286.26" fill="url(#g)"/>
<path d="m416.89 554.68v-108.36c23.349-22.204 47.817-43.726 72.243-64.093v125.5c51.28 42.639 107.71 104.02 141.84 142.88-82.853-52.175-214.08-95.919-214.08-95.919" fill="url(#f)"/>
<path d="m416.89 569.13v-14.449s131.23 43.744 214.08 95.919c19.355 22.036 31.542 36.825 31.542 36.825-74.95-61.405-245.62-118.3-245.62-118.3" fill="url(#e)"/>
<path d="m489.13 382.23c62.933-52.482 125.54-97.256 167.84-126.12-82.142 98.077-167.84 228.14-167.84 228.14z" fill="url(#d)"/>
<path d="m489.13 484.25s85.703-130.06 167.84-228.14c32.077-21.891 52.491-34.636 52.491-34.636-93.011 93.013-220.34 286.26-220.34 286.26z" fill="url(#c)"/>
</g>
</g>
</g>
</svg>
