<?xml version="1.0" encoding="UTF-8"?>
<svg version="1.1" viewBox="2.4722 .60791 16 15.841" xmlns="http://www.w3.org/2000/svg" xmlns:xlink="http://www.w3.org/1999/xlink">
<defs>
<radialGradient id="g" cx="23.69" cy="12.766" r="14.35" gradientTransform="matrix(0 1.8458 -1.5756 0 41.661 -29.484)" gradientUnits="userSpaceOnUse">
<stop stop-color="#fff" offset="0"/>
<stop stop-color="#fff" stop-opacity="0" offset="1"/>
</radialGradient>
<radialGradient id="f" cx="23.69" cy="12.766" r="14.35" gradientTransform="matrix(0 1.1525 -.98381 0 34.106 -13.06)" gradientUnits="userSpaceOnUse">
<stop stop-color="#fff" offset="0"/>
<stop stop-color="#666" stop-opacity="0" offset="1"/>
</radialGradient>
<linearGradient id="d" x1="17.161" x2="13.206" y1="21.54" y2="16.9" gradientUnits="userSpaceOnUse" xlink:href="#a"/>
<linearGradient id="a">
<stop stop-color="#97ca43" offset="0"/>
<stop stop-color="#97ca43" stop-opacity="0" offset="1"/>
</linearGradient>
<linearGradient id="c" x1="11.656" x2="13.586" y1="18.172" y2="19.231" gradientUnits="userSpaceOnUse" xlink:href="#p"/>
<linearGradient id="p">
<stop stop-color="#458f41" offset="0"/>
<stop stop-color="#458f41" stop-opacity="0" offset="1"/>
</linearGradient>
<linearGradient id="b" x1="19.903" x2="14.902" y1="19.231" y2="17.2" gradientUnits="userSpaceOnUse" xlink:href="#o"/>
<linearGradient id="o">
<stop stop-color="#e5edae" offset="0"/>
<stop stop-color="#e5edae" stop-opacity="0" offset="1"/>
</linearGradient>
<linearGradient id="n" x1="19.663" x2="23.287" y1="13.09" y2="5.0464" gradientUnits="userSpaceOnUse" xlink:href="#a"/>
<linearGradient id="m" x1="17.497" x2="17.321" y1="4.0984" y2="6.218" gradientUnits="userSpaceOnUse" xlink:href="#e"/>
<linearGradient id="e">
<stop stop-color="#459743" offset="0"/>
<stop stop-color="#459743" stop-opacity="0" offset="1"/>
</linearGradient>
<linearGradient id="l" x1="19.339" x2="18.286" y1="4.7166" y2="6.3063" gradientUnits="userSpaceOnUse" xlink:href="#e"/>
<linearGradient id="k" x1="19.515" x2="21.796" y1="15.668" y2="11.517" gradientUnits="userSpaceOnUse">
<stop stop-color="#e6edae" offset="0"/>
<stop stop-color="#e6edae" stop-opacity="0" offset="1"/>
</linearGradient>
<linearGradient id="j" x1="17.551" x2="20.647" y1="12.031" y2="6.9877" gradientUnits="userSpaceOnUse" xlink:href="#a"/>
<linearGradient id="i" x1="19.552" x2="18.76" y1="5.0688" y2="6.3482" gradientUnits="userSpaceOnUse">
<stop stop-color="#46873f" offset="0"/>
<stop stop-color="#46873f" stop-opacity="0" offset="1"/>
</linearGradient>
<linearGradient id="h" x1="20.124" x2="21.972" y1="15.569" y2="10.981" gradientUnits="userSpaceOnUse">
<stop stop-color="#e6eead" offset="0"/>
<stop stop-color="#e6eead" stop-opacity="0" offset="1"/>
</linearGradient>
</defs>
<g transform="matrix(.41494 0 0 .41494 -2.6194 15.99)">
<g>
<ellipse transform="matrix(1.1756 0 0 1.1301 4.1196 -37.636)" cx="23.333" cy="17.392" rx="14.35" ry="14.758" fill="#666"/>
<ellipse transform="matrix(1.1756 0 0 1.1301 4.1196 -37.636)" cx="23.333" cy="17.392" rx="14.35" ry="14.758" fill="url(#g)"/>
<ellipse transform="matrix(1.1756 0 0 1.1301 4.1196 -37.636)" cx="23.333" cy="17.392" rx="14.35" ry="14.758" fill="url(#f)"/>
</g>
<g transform="translate(-4.7344 9.5518)">
<g transform="matrix(1.0075 0 0 1.0008 -.2371 .027153)"/>
<g transform="translate(4.75 -9.5)">
<g transform="matrix(1.0075 0 0 1.0008 -.23709 .027153)">
<g transform="translate(1.3344 -34.927)">
<path transform="translate(8.2169 -1.073)" d="m17.75 10.656c-1.8477 2.256-9.5927 11.425-8.9062 17.625 0.47832 0.61002 1.0047 1.1803 1.5625 1.7188-0.08129-4.7457 5.4515-9.8246 9.7694-13.658z" fill="#00a54d"/>
</g>
<g transform="translate(1.3344 -34.927)">
<path transform="translate(8.2169 -1.073)" d="m17.75 10.656c-1.8477 2.256-9.5927 11.425-8.9062 17.625 0.47832 0.61002 1.0047 1.1803 1.5625 1.7188-0.08129-4.7457 5.4515-9.8246 9.7694-13.658z" fill="url(#d)"/>
<path transform="translate(8.2169 -1.073)" d="m17.75 10.656c-1.8477 2.256-9.5927 11.425-8.9062 17.625 0.47832 0.61002 1.0047 1.1803 1.5625 1.7188-0.08129-4.7457 5.4515-9.8246 9.7694-13.658z" fill="url(#c)"/>
<path transform="translate(8.2169 -1.073)" d="m17.75 10.656c-1.8477 2.256-9.5927 11.425-8.9062 17.625 0.47832 0.61002 1.0047 1.1803 1.5625 1.7188-0.08129-4.7457 5.4515-9.8246 9.7694-13.658z" fill="url(#b)"/>
</g>
</g>
<g transform="matrix(1.0075 0 0 1.0008 .96807 -34.898)">
<g>
<path transform="translate(8.2169 -1.073)" d="m13.344 3.75c-0.96566 0.58492-1.8629 1.2723-2.6875 2.0312 2.6563 0.50798 5.3208 2.8624 6.7812 4.8125 1.2724 2.0014 1.9634 3.8367 2.8615 5.7312 0.60813-0.51835 1.2265-1.0464 1.8963-1.5867l-0.0039-8.2266c-1.979-1.2378-5.2498-2.867-8.8164-2.7617-0.0076 0.00461-0.02361-0.00463-0.03125 0z" fill="#02a74d"/>
<path transform="translate(8.2169 -1.073)" d="m13.344 3.75c-0.96566 0.58492-1.8629 1.2723-2.6875 2.0312 2.6563 0.50798 5.3208 2.8624 6.7812 4.8125 1.2724 2.0014 1.9634 3.8367 2.8615 5.7312 0.60813-0.51835 1.2265-1.0464 1.8963-1.5867l-0.0039-8.2266c-1.979-1.2378-5.2498-2.867-8.8164-2.7617-0.0076 0.00461-0.02361-0.00463-0.03125 0z" fill="url(#n)"/>
<path transform="translate(8.2169 -1.073)" d="m13.344 3.75c-0.96566 0.58492-1.8629 1.2723-2.6875 2.0312 2.6563 0.50798 5.3208 2.8624 6.7812 4.8125 1.2724 2.0014 1.9634 3.8367 2.8615 5.7312 0.60813-0.51835 1.2265-1.0464 1.8963-1.5867l-0.0039-8.2266c-1.979-1.2378-5.2498-2.867-8.8164-2.7617-0.0076 0.00461-0.02361-0.00463-0.03125 0z" fill="url(#m)"/>
<path transform="translate(8.2169 -1.073)" d="m13.344 3.75c-0.96566 0.58492-1.8629 1.2723-2.6875 2.0312 2.6563 0.50798 5.3208 2.8624 6.7812 4.8125 1.2724 2.0014 1.9634 3.8367 2.8615 5.7312 0.60813-0.51835 1.2265-1.0464 1.8963-1.5867l-0.0039-8.2266c-1.979-1.2378-5.2498-2.867-8.8164-2.7617-0.0076 0.00461-0.02361-0.00463-0.03125 0z" fill="url(#l)"/>
<path transform="translate(8.2169 -1.073)" d="m13.344 3.75c-0.96566 0.58492-1.8629 1.2723-2.6875 2.0312 2.6563 0.50798 5.3208 2.8624 6.7812 4.8125 1.2724 2.0014 1.9634 3.8367 2.8615 5.7312 0.60813-0.51835 1.2265-1.0464 1.8963-1.5867l-0.0039-8.2266c-1.979-1.2378-5.2498-2.867-8.8164-2.7617-0.0076 0.00461-0.02361-0.00463-0.03125 0z" fill="url(#k)"/>
</g>
</g>
<g transform="matrix(-1.0075 0 0 1.0008 63.323 .027153)">
<g transform="translate(1.3344 -34.927)">
<path transform="translate(8.2169 -1.073)" d="m17.75 10.656c-1.8477 2.256-9.5927 11.425-8.9062 17.625 0.47832 0.61002 1.0047 1.1803 1.5625 1.7188-0.08129-4.7457 5.4515-9.8246 9.7694-13.658z" fill="#00a54d"/>
</g>
<g transform="translate(1.3344 -34.927)">
<path transform="translate(8.2169 -1.073)" d="m17.75 10.656c-1.8477 2.256-9.5927 11.425-8.9062 17.625 0.47832 0.61002 1.0047 1.1803 1.5625 1.7188-0.08129-4.7457 5.4515-9.8246 9.7694-13.658z" fill="url(#d)"/>
<path transform="translate(8.2169 -1.073)" d="m17.75 10.656c-1.8477 2.256-9.5927 11.425-8.9062 17.625 0.47832 0.61002 1.0047 1.1803 1.5625 1.7188-0.08129-4.7457 5.4515-9.8246 9.7694-13.658z" fill="url(#c)"/>
<path transform="translate(8.2169 -1.073)" d="m17.75 10.656c-1.8477 2.256-9.5927 11.425-8.9062 17.625 0.47832 0.61002 1.0047 1.1803 1.5625 1.7188-0.08129-4.7457 5.4515-9.8246 9.7694-13.658z" fill="url(#b)"/>
</g>
</g>
<g transform="matrix(-1.0042 0 0 1.0017 63.252 .054306)">
<g transform="translate(1.1962 -34.896)">
<g>
<path transform="translate(8.2169 -1.073)" d="m13.344 3.75c-0.96566 0.58492-1.8629 1.2723-2.6875 2.0312 2.6563 0.50798 5.3208 2.8624 6.7812 4.8125 1.2724 2.0014 1.9634 3.8367 2.8615 5.7312 0.60813-0.51835 1.2265-1.0464 1.8963-1.5867l-0.0039-8.2266c-1.979-1.2378-5.2498-2.867-8.8164-2.7617-0.0076 0.00461-0.02361-0.00463-0.03125 0z" fill="#02a74d"/>
<path transform="translate(8.2169 -1.073)" d="m13.344 3.75c-0.96566 0.58492-1.8629 1.2723-2.6875 2.0312 2.6563 0.50798 5.3208 2.8624 6.7812 4.8125 1.2724 2.0014 1.9634 3.8367 2.8615 5.7312 0.60813-0.51835 1.2265-1.0464 1.8963-1.5867l-0.0039-8.2266c-1.979-1.2378-5.2498-2.867-8.8164-2.7617-0.0076 0.00461-0.02361-0.00463-0.03125 0z" fill="url(#j)"/>
<path transform="translate(8.2169 -1.073)" d="m13.344 3.75c-0.96566 0.58492-1.8629 1.2723-2.6875 2.0312 2.6563 0.50798 5.3208 2.8624 6.7812 4.8125 1.2724 2.0014 1.9634 3.8367 2.8615 5.7312 0.60813-0.51835 1.2265-1.0464 1.8963-1.5867l-0.0039-8.2266c-1.979-1.2378-5.2498-2.867-8.8164-2.7617-0.0076 0.00461-0.02361-0.00463-0.03125 0z" fill="url(#i)"/>
<path transform="translate(8.2169 -1.073)" d="m13.344 3.75c-0.96566 0.58492-1.8629 1.2723-2.6875 2.0312 2.6563 0.50798 5.3208 2.8624 6.7812 4.8125 1.2724 2.0014 1.9634 3.8367 2.8615 5.7312 0.60813-0.51835 1.2265-1.0464 1.8963-1.5867l-0.0039-8.2266c-1.979-1.2378-5.2498-2.867-8.8164-2.7617-0.0076 0.00461-0.02361-0.00463-0.03125 0z" fill="url(#h)"/>
</g>
</g>
</g>
</g>
</g>
</g>
</svg>
