<?xml version="1.0" encoding="UTF-8"?>
<svg version="1.1" viewBox="0 0 16 16" xmlns="http://www.w3.org/2000/svg">
<path d="m8.6981 14.971c1.0785-0.10324 2.1703-0.49026 3.1082-1.102 0.78591-0.51224 0.96336-0.72312 0.96336-1.1436 0-0.84446-0.9292-2.3239-2.5189-4.01-0.90258-0.95786-2.1601-2.08-2.2959-2.0497-0.26457 0.059033-2.3783 2.1197-3.1697 3.0899-1.2513 1.5335-1.8263 2.7896-1.5341 3.3496 0.22211 0.42555 1.6006 1.2575 2.6132 1.5772 0.83474 0.26343 1.931 0.37495 2.8339 0.28857zm5.1331-3.1235c0.65315-1.0015 0.9831-1.9873 1.1422-3.4132 0.052674-0.4708 0.034161-0.73996-0.11926-1.7066-0.19085-1.2034-0.87704-2.5972-1.702-3.4542-0.35112-0.36428-0.38242-0.37403-0.81066-0.22929-0.51906 0.17563-1.0739 0.55878-1.9347 1.3368l-0.50279 0.45438 0.275 0.33664c1.2737 1.5628 2.6181 3.7794 3.1241 5.1504 0.27503 0.74486 0.38569 1.4929 0.26685 1.8043-0.07967 0.21048-0.0064 0.13207 0.26204-0.27866zm-11.464 0.1703c-0.064599-0.31484 0.01708-0.89291 0.20827-1.476 0.41412-1.2628 1.7987-3.6119 3.07-5.2092l0.40029-0.50283-0.43315-0.3973c-0.56528-0.51878-0.95775-0.8294-1.3815-1.0933-0.33405-0.20817-0.81162-0.39242-1.017-0.39242-0.12644 0-0.57212 0.46349-0.93172 0.96763-0.55714 0.78061-0.96686 1.7287-1.1745 2.7142-0.13424 0.6375-0.14547 2.0003-0.021642 2.6362 0.10251 0.52171 0.3173 1.1979 0.52557 1.6567 0.15783 0.34361 0.54672 1.0112 0.71758 1.2284 0.087868 0.11173 0.087868 0.11163 0.03905-0.12941zm6.2153-9.3096c0.58676-0.2976 1.4918-0.61717 1.9917-0.70335 0.17508-0.030094 0.47399-0.047165 0.66389-0.037403 0.41259 0.020812 0.39428-6.542e-4 -0.26736-0.31306-0.54998-0.25971-1.0088-0.41242-1.632-0.54317-0.7005-0.14718-2.0177-0.1488-2.7071-0.0035778-0.74443 0.15693-1.6213 0.483-2.1153 0.78711l-0.1471 0.090099 0.33682-0.016918c0.66974-0.033825 1.6457 0.23662 2.6936 0.74597 0.316 0.15384 0.59066 0.27647 0.61084 0.27322 0.020016-0.0039 0.27759-0.12929 0.57276-0.27891z" fill="#1daf1e" stroke-width="1.0225"/>
</svg>
