<?xml version="1.0" encoding="UTF-8"?>
<svg version="1.1" viewBox="0 0 16 7.8569" xmlns="http://www.w3.org/2000/svg">
<g transform="translate(-87.941 -88)">
<rect x="87.941" y="88" width="16" height="7.8569" fill="#0f7a10" stroke-width=".14546"/>
<path fill="#fff" d="m99.151 92.127 0.67653-0.92977c-0.22196-0.05193-0.43293-0.1429-0.62306-0.26865-0.18801-0.14292-0.29297-0.36973-0.28022-0.60556-0.01-0.23802 0.10519-0.46393 0.30318-0.5964 0.26309-0.15664 0.56734-0.23018 0.87293-0.21101 1.1891 0 1.4989 0.62515 1.7091 0.88979l0.63783-0.87662c-0.10782-0.1756-0.24421-0.33197-0.40354-0.46264-0.44406-0.36698-1.098-0.55048-1.9618-0.55048-0.76009 0-1.3542 0.16668-1.7825 0.50005-0.42069 0.31638-0.66071 0.81799-0.64314 1.3441 0 0.89188 0.49813 1.4549 1.4947 1.7672zm3.2788-0.04705c-0.29804-0.26539-0.75972-0.47324-1.385-0.62354l-0.68409 0.94005c0.35787 0.07169 0.69851 0.21188 1.0032 0.41286 0.1917 0.13228 0.30111 0.35449 0.28905 0.58709 0.0143 0.27672-0.11399 0.54152-0.33995 0.70191-0.29488 0.18039-0.63828 0.2653-0.98325 0.24312-0.98887 0-1.455-0.32775-1.9312-1.1809l-0.68248 0.9378c0.12176 0.25066 0.2972 0.47143 0.51386 0.64667 0.487 0.3976 1.1746 0.5964 2.0628 0.5964 0.8331 0 1.4824-0.17584 1.948-0.52751 0.46379-0.34778 0.72531-0.90262 0.69838-1.4817 0.0247-0.47235-0.16199-0.93122-0.50953-1.2521zm-5.8796 3.1153h-0.28503v-6.5327h0.28439zm-7.6089-1.6e-4h1.4057l1.0679-1.4676-0.70287-0.96606zm6.159-6.5322h-1.4057l-0.87373 1.2007 0.70287 0.9659zm-4.5591 0h-1.4059l4.7532 6.5312h1.4057z" stroke-width=".16058"/>
</g>
</svg>
